<?xml version="1.0" standalone="no"?>
<!DOCTYPE svg PUBLIC "-//W3C//DTD SVG 20010904//EN"
 "http://www.w3.org/TR/2001/REC-SVG-20010904/DTD/svg10.dtd">
<svg version="1.0" xmlns="http://www.w3.org/2000/svg"
 width="512.000000pt" height="512.000000pt" viewBox="0 0 512.000000 512.000000"
 preserveAspectRatio="xMidYMid meet">
<metadata>
Created by potrace 1.14, written by Peter Selinger 2001-2017
</metadata>
<g transform="translate(0.000000,512.000000) scale(0.100000,-0.100000)"
fill="#000000" stroke="none">
<path d="M0 2560 l0 -2560 2560 0 2560 0 0 2560 0 2560 -2560 0 -2560 0 0
-2560z m2435 2440 c4 -6 11 -7 17 -4 7 4 8 2 4 -5 -6 -9 -12 -9 -24 1 -10 7
-19 14 -21 15 -2 2 1 3 7 3 6 0 14 -5 17 -10z m-36 -31 c-10 -6 -7 -10 10 -17
22 -8 21 -9 -12 -19 -26 -8 -41 -7 -63 3 -25 12 -26 13 -4 8 14 -4 27 -6 30
-6 28 -1 40 4 35 12 -4 6 -10 8 -14 6 -4 -3 -13 0 -21 6 -12 8 -11 9 4 4 13
-4 17 -2 13 8 -4 10 0 12 15 8 15 -3 16 -7 7 -13z m250 -48 c10 -7 7 -9 -12
-8 -14 1 -23 5 -20 10 6 9 15 9 32 -2z m-442 -17 c-3 -3 -12 -4 -19 -1 -8 3
-5 6 6 6 11 1 17 -2 13 -5z m158 -24 c-3 -5 -11 -10 -16 -10 -6 0 -7 5 -4 10
3 6 11 10 16 10 6 0 7 -4 4 -10z m-45 -76 c0 -2 -9 -4 -20 -4 -11 0 -20 4 -20
9 0 5 9 7 20 4 11 -3 20 -7 20 -9z m638 -13 c11 -7 11 -9 -1 -14 -9 -3 -18 1
-21 9 -6 16 2 18 22 5z m-558 -53 c0 -5 -11 -8 -25 -8 -14 0 -25 3 -25 8 0 4
11 7 25 7 14 0 25 -3 25 -7z m357 -24 c-3 -3 -12 -4 -19 -1 -8 3 -5 6 6 6 11
1 17 -2 13 -5z m-872 -24 c3 -5 2 -10 -4 -10 -5 0 -13 5 -16 10 -3 6 -2 10 4
10 5 0 13 -4 16 -10z m592 -6 c-3 -3 -12 -4 -19 -1 -8 3 -5 6 6 6 11 1 17 -2
13 -5z m463 -4 c0 -11 -92 -40 -127 -40 -16 0 -22 -4 -17 -12 5 -7 3 -8 -5 -3
-10 5 -7 13 9 29 13 12 24 16 26 10 3 -6 18 -9 34 -6 16 2 28 8 25 12 -3 5 3
6 14 3 10 -3 22 0 25 6 9 14 16 14 16 1z m-150 -14 c0 -2 -7 -7 -16 -10 -8 -3
-12 -2 -9 4 6 10 25 14 25 6z m607 -38 c-3 -8 -6 -5 -6 6 -1 11 2 17 5 13 3
-3 4 -12 1 -19z m-1307 -19 c13 -7 13 -8 0 -8 -8 0 -26 6 -40 15 l-25 15 25
-7 c14 -3 32 -10 40 -15z m745 11 c-3 -5 -12 -10 -18 -10 -7 0 -6 4 3 10 19
12 23 12 15 0z m112 -6 c-3 -3 -12 -4 -19 -1 -8 3 -5 6 6 6 11 1 17 -2 13 -5z
m-742 -49 c39 -17 21 -18 -25 0 -19 7 -28 14 -20 14 8 0 29 -6 45 -14z m350 5
c-3 -5 -12 -10 -18 -10 -7 0 -6 4 3 10 19 12 23 12 15 0z m-108 -6 c-3 -3 -12
-4 -19 -1 -8 3 -5 6 6 6 11 1 17 -2 13 -5z m698 -9 c-5 -2 -32 -6 -59 -10 -35
-5 -45 -9 -35 -16 12 -7 12 -9 -1 -9 -8 0 -22 4 -29 9 -12 8 -8 11 15 16 16 4
34 8 39 10 6 2 26 3 45 3 19 0 31 -1 25 -3z m-190 -59 c19 -8 35 -17 35 -20 0
-5 -71 22 -79 30 -9 8 11 4 44 -10z m342 8 c-3 -3 -12 -4 -19 -1 -8 3 -5 6 6
6 11 1 17 -2 13 -5z m-122 -24 c3 -6 -1 -7 -9 -4 -18 7 -21 14 -7 14 6 0 13
-4 16 -10z m385 -14 c0 -2 -7 -7 -16 -10 -8 -3 -12 -2 -9 4 6 10 25 14 25 6z
m-1850 -28 c10 -6 7 -7 -10 -2 -14 3 -32 11 -40 16 -10 6 -7 7 10 2 14 -3 32
-11 40 -16z m1975 3 c3 -5 2 -12 -3 -15 -5 -3 -9 1 -9 9 0 17 3 19 12 6z
m-1925 -21 c8 -5 11 -10 5 -10 -5 0 -17 5 -25 10 -8 5 -10 10 -5 10 6 0 17 -5
25 -10z m1745 -10 c-27 -12 -43 -12 -25 0 8 5 22 9 30 9 10 0 8 -3 -5 -9z
m-1695 -10 c8 -5 11 -10 5 -10 -5 0 -17 5 -25 10 -8 5 -10 10 -5 10 6 0 17 -5
25 -10z m1081 -25 c11 -4 18 -9 16 -11 -8 -8 -76 29 -71 38 3 4 12 2 20 -6 8
-8 23 -18 35 -21z m146 29 c-3 -3 -12 -4 -19 -1 -8 3 -5 6 6 6 11 1 17 -2 13
-5z m368 -4 c-27 -12 -43 -12 -25 0 8 5 22 9 30 9 10 0 8 -3 -5 -9z m-735 -20
c0 -5 -5 -10 -11 -10 -5 0 -7 5 -4 10 3 6 8 10 11 10 2 0 4 -4 4 -10z m740 -5
c-14 -8 -29 -14 -35 -14 -5 0 1 6 15 14 14 8 30 14 35 14 6 0 -1 -6 -15 -14z
m-1530 -5 c8 -5 11 -10 5 -10 -5 0 -17 5 -25 10 -8 5 -10 10 -5 10 6 0 17 -5
25 -10z m457 -14 c0 -8 -6 -12 -14 -9 -7 3 -10 9 -7 14 8 14 21 11 21 -5z
m-397 -6 c18 -12 2 -12 -25 0 -13 6 -15 9 -5 9 8 0 22 -4 30 -9z m629 -8 c0
-10 -3 -12 -5 -5 -3 7 -12 9 -20 6 -8 -3 -14 -1 -14 4 0 5 9 9 20 10 13 1 20
-4 19 -15z m731 8 c-8 -5 -19 -10 -25 -10 -5 0 -3 5 5 10 8 5 20 10 25 10 6 0
3 -5 -5 -10z m125 0 c-3 -5 -12 -10 -18 -10 -7 0 -6 4 3 10 19 12 23 12 15 0z
m-748 -6 c-3 -3 -12 -4 -19 -1 -8 3 -5 6 6 6 11 1 17 -2 13 -5z m-67 -14 c-20
-13 -33 -13 -25 0 3 6 14 10 23 10 15 0 15 -2 2 -10z m105 0 c-27 -12 -43 -12
-25 0 8 5 22 9 30 9 10 0 8 -3 -5 -9z m530 0 c-3 -5 -14 -10 -23 -10 -15 0
-15 2 -2 10 20 13 33 13 25 0z m-355 -22 c0 -6 -6 -5 -15 2 -8 7 -15 14 -15
16 0 2 7 1 15 -2 8 -4 15 -11 15 -16z m-223 -2 c0 -8 -8 -11 -20 -8 -14 4 -16
7 -5 13 19 12 25 11 25 -5z m293 -22 c0 -2 -7 -4 -15 -4 -8 0 -15 4 -15 10 0
5 7 7 15 4 8 -4 15 -8 15 -10z m200 -8 c0 -2 -9 -6 -20 -9 -11 -3 -18 -1 -14
4 5 9 34 13 34 5z m140 -6 c-8 -5 -19 -10 -25 -10 -5 0 -3 5 5 10 8 5 20 10
25 10 6 0 3 -5 -5 -10z m-110 -14 c0 -2 -9 -6 -20 -9 -11 -3 -18 -1 -14 4 5 9
34 13 34 5z m-373 -12 c-3 -3 -12 -4 -19 -1 -8 3 -5 6 6 6 11 1 17 -2 13 -5z
m1183 -29 c0 -8 -4 -15 -8 -15 -5 0 -7 -13 -4 -30 5 -33 22 -41 22 -10 0 11 5
20 10 20 6 0 10 -9 10 -20 0 -12 6 -20 13 -19 46 6 57 -1 57 -36 0 -19 -4 -35
-10 -35 -5 0 -10 -9 -10 -20 0 -11 -6 -20 -14 -20 -8 0 -16 -7 -20 -15 -3 -8
-14 -15 -25 -15 -14 0 -19 -5 -15 -15 5 -11 -1 -15 -20 -15 -19 0 -26 -5 -26
-19 0 -13 -8 -21 -22 -23 -19 -2 -24 -10 -26 -40 -3 -32 -7 -38 -27 -38 -23 0
-40 -24 -29 -41 3 -5 -4 -9 -14 -9 -19 0 -20 7 -20 125 0 99 3 125 14 126 34
3 39 6 36 19 -2 8 -8 17 -13 18 -5 2 -7 8 -4 12 3 5 14 1 24 -9 24 -24 66 -17
68 10 1 10 -2 19 -7 19 -11 0 12 63 28 73 6 4 12 15 12 22 0 8 5 15 10 15 6 0
10 -7 10 -15z m118 -49 c3 -12 -1 -17 -10 -14 -7 3 -15 13 -16 22 -3 12 1 17
10 14 7 -3 15 -13 16 -22z m-1098 -6 c-8 -5 -19 -10 -25 -10 -5 0 -3 5 5 10 8
5 20 10 25 10 6 0 3 -5 -5 -10z m-451 -46 c13 -12 -8 -10 -29 2 l-25 15 25 -7
c14 -3 27 -8 29 -10z m88 -70 c-1 -1 -20 -9 -43 -16 -37 -13 -40 -13 -41 3 -1
15 4 17 30 13 28 -4 29 -3 10 5 -35 16 -27 20 12 8 19 -6 34 -11 32 -13z m450
-36 c-3 -7 -5 -2 -5 12 0 14 2 19 5 13 2 -7 2 -19 0 -25z m-47 -12 c0 -8 -4
-18 -10 -21 -5 -3 -10 3 -10 14 0 12 5 21 10 21 6 0 10 -6 10 -14z m-1170 -36
c0 -5 -7 -7 -15 -4 -8 4 -15 8 -15 10 0 2 7 4 15 4 8 0 15 -4 15 -10z m141
-48 c68 -27 196 -77 284 -111 167 -66 252 -114 115 -66 -74 26 -227 85 -286
110 -17 7 -79 32 -137 55 -59 23 -107 46 -107 51 0 13 -6 14 131 -39z m1722 7
c22 -12 25 -81 3 -73 -11 4 -13 0 -9 -15 3 -11 10 -18 15 -15 6 4 8 -2 3 -15
-4 -12 -2 -21 4 -21 13 0 10 -22 -4 -32 -6 -5 -5 -8 3 -8 6 0 12 -7 12 -15 0
-8 -6 -15 -12 -15 -8 0 -9 -3 -3 -8 15 -11 17 -84 3 -94 -10 -6 -10 -10 2 -19
11 -7 12 -12 3 -15 -9 -4 -9 -11 -1 -30 9 -18 9 -27 0 -36 -7 -7 -12 -20 -12
-30 0 -10 -7 -18 -17 -18 -10 0 -27 -7 -37 -15 -16 -12 -22 -12 -28 -2 -6 9
-8 8 -8 -4 0 -20 -23 -31 -46 -22 -9 3 -14 13 -11 24 3 11 1 19 -4 19 -5 0
-10 -8 -10 -17 -1 -16 -2 -15 -6 1 -4 15 -7 16 -14 5 -7 -12 -12 -12 -29 -1
-11 7 -25 10 -31 7 -5 -4 -9 -3 -8 2 4 21 -2 33 -16 33 -10 0 -15 10 -15 30 0
23 4 30 20 30 11 0 20 4 20 10 0 5 -6 7 -14 4 -12 -5 -14 8 -14 68 0 42 5 76
12 80 8 6 8 8 -1 8 -7 0 -11 20 -11 52 -1 28 -5 54 -9 57 -4 3 -9 12 -11 20
-2 11 0 12 11 3 11 -9 13 -8 13 6 -1 9 1 17 4 18 3 0 16 7 30 14 24 13 24 12
10 -6 -8 -10 -1 -7 16 9 33 30 55 37 33 10 -13 -15 -12 -15 8 -3 12 8 19 19
16 25 -4 5 4 1 18 -10 13 -11 18 -13 11 -4 -15 20 -4 33 15 17 11 -8 12 -7 7
5 -5 14 -1 15 33 5 21 -5 46 -14 56 -19z m-1565 -135 c163 -64 299 -121 300
-125 2 -5 8 -7 13 -3 5 3 9 0 9 -6 0 -14 -8 -12 -205 65 -301 117 -425 168
-425 177 0 4 2 8 5 8 3 0 140 -52 303 -116z m2011 -480 c1 -171 -1 -203 -14
-208 -8 -3 -15 -15 -15 -26 0 -15 -7 -20 -25 -20 -20 0 -24 -5 -22 -22 2 -20
-3 -23 -35 -26 -25 -2 -38 -8 -38 -18 0 -8 -10 -14 -25 -14 -14 0 -25 -4 -25
-10 0 -5 -11 -10 -25 -10 -18 0 -25 -5 -25 -20 0 -13 -7 -20 -20 -20 -15 0
-21 -9 -26 -40 -4 -22 -10 -40 -15 -40 -5 0 -9 -9 -9 -20 0 -11 -5 -20 -10
-20 -7 0 -9 -20 -4 -60 5 -42 3 -60 -5 -60 -6 0 -10 -3 -10 -7 1 -5 1 -30 0
-58 -1 -40 -4 -46 -12 -32 -6 10 -10 28 -9 40 5 61 -6 62 -16 1 -10 -67 -14
-51 -14 60 0 64 4 105 9 101 5 -3 12 -1 16 5 3 5 -1 10 -9 10 -9 0 -16 5 -16
10 0 6 6 9 12 8 18 -4 22 40 6 59 -11 14 -11 16 2 8 12 -7 13 -6 3 7 -7 8 -10
17 -7 20 3 4 5 48 6 100 0 51 2 87 5 80 7 -19 23 -4 23 23 0 13 6 25 13 28 16
5 47 -3 47 -13 0 -5 11 -3 25 3 14 7 25 18 25 25 0 7 7 15 15 18 8 3 20 24 26
45 14 47 24 50 33 9 6 -33 32 -41 39 -12 4 13 5 11 6 -5 1 -14 7 -23 16 -23 9
0 18 -7 21 -15 4 -8 12 -15 18 -15 27 0 39 55 42 175 3 203 4 222 14 200 5
-11 9 -111 9 -221z m-709 154 c0 -16 -3 -19 -11 -11 -6 6 -8 16 -5 22 11 17
16 13 16 -11z m740 -179 c0 -100 -3 -138 -11 -133 -7 4 -9 31 -5 78 3 39 5 99
6 134 0 34 2 62 5 62 3 0 5 -63 5 -141z m-920 21 c0 -5 -7 -10 -15 -10 -8 0
-15 5 -15 10 0 6 7 10 15 10 8 0 15 -4 15 -10z m-121 -69 c19 -11 29 -91 11
-91 -7 0 -10 -15 -8 -37 2 -24 8 -37 16 -35 6 1 12 -5 12 -13 0 -8 6 -15 13
-15 9 0 14 -12 15 -29 0 -17 5 -38 10 -48 5 -10 7 -24 5 -30 -3 -7 2 -13 11
-13 10 0 16 9 16 25 0 16 4 23 14 19 9 -3 16 6 20 28 7 29 9 31 16 13 5 -11 9
-35 9 -52 1 -39 18 -43 31 -7 17 45 31 16 28 -61 -1 -50 -6 -76 -15 -79 -7 -3
-13 -1 -13 4 0 6 -4 10 -10 10 -5 0 -10 -7 -10 -15 0 -8 -7 -15 -16 -15 -8 0
-13 4 -9 9 3 5 -8 9 -25 9 -26 -1 -28 -2 -12 -14 15 -11 12 -14 -26 -20 -23
-4 -45 -10 -48 -15 -3 -5 1 -6 9 -3 8 3 17 1 21 -4 9 -15 -6 -52 -21 -52 -8 0
-12 -4 -8 -9 3 -5 -4 -12 -15 -16 -13 -4 -20 -15 -20 -32 0 -22 -3 -24 -26
-19 -16 4 -23 3 -20 -3 7 -11 -32 -26 -41 -17 -4 3 1 6 10 6 9 0 17 4 17 9 0
5 -11 8 -25 7 -28 -1 -30 -8 -13 -36 16 -25 0 -40 -17 -17 -13 18 -14 18 -17
-3 -4 -29 -23 -25 -21 5 1 17 -3 22 -13 18 -9 -3 -14 2 -14 16 0 12 -6 21 -15
21 -8 0 -15 -6 -15 -14 0 -7 -9 -16 -19 -19 -15 -4 -20 2 -23 24 -3 15 0 35 4
43 7 12 5 16 -7 16 -8 0 -15 -9 -15 -20 0 -11 -4 -20 -10 -20 -5 0 -10 9 -10
21 0 15 -4 19 -16 15 -15 -6 -16 1 -10 61 3 38 7 115 7 173 1 58 4 99 6 93 12
-33 23 -7 21 50 -1 49 -6 66 -23 82 -11 11 -19 19 -16 18 2 -2 10 2 18 8 7 6
13 8 13 3 0 -5 4 -4 8 2 4 7 23 14 43 17 20 2 42 8 49 12 15 9 130 42 153 44
10 0 26 -3 36 -8z m579 -180 c1 -95 7 -181 12 -191 9 -17 4 -30 -11 -30 -4 0
-9 10 -12 23 -3 20 -4 21 -12 3 -6 -13 -3 -21 8 -28 21 -11 22 -48 2 -48 -11
0 -13 -8 -8 -30 4 -23 2 -30 -11 -30 -10 0 -16 -8 -16 -21 0 -12 -8 -23 -20
-26 -11 -3 -20 -12 -20 -19 0 -21 19 -17 42 9 l20 22 -15 -23 c-10 -16 -13
-42 -11 -83 4 -58 3 -60 -18 -57 -15 2 -23 -2 -23 -11 0 -8 -14 -18 -31 -23
-19 -5 -34 -16 -37 -28 -3 -12 -14 -20 -26 -20 -14 0 -21 -6 -21 -20 0 -15 -7
-20 -25 -20 -18 0 -25 -5 -25 -19 0 -13 -9 -20 -30 -24 -24 -5 -30 -12 -30
-31 0 -16 -7 -27 -20 -31 -11 -3 -23 -18 -27 -33 -3 -15 -10 -30 -15 -33 -9
-6 -16 -42 -17 -91 -1 -20 -6 -28 -19 -28 -11 0 -22 -12 -29 -31 -9 -22 -17
-30 -28 -26 -10 5 -15 0 -15 -13 0 -15 -9 -21 -40 -26 -37 -6 -40 -9 -40 -40
0 -28 -4 -34 -20 -34 -17 0 -20 -6 -18 -27 3 -23 -1 -28 -19 -27 -13 0 -23 -3
-23 -7 0 -12 -48 -17 -59 -6 -8 8 -11 8 -11 1 0 -6 -13 -10 -30 -9 -20 1 -31
-4 -35 -15 -4 -12 -13 -16 -30 -12 -19 3 -25 11 -26 31 0 14 -4 35 -8 45 -7
19 -8 18 -14 -5 -6 -20 -9 -21 -17 -9 -7 11 -10 11 -10 2 0 -7 -3 -11 -7 -9
-5 3 -5 56 -1 119 10 178 9 366 -2 373 -20 12 1 23 107 58 161 53 227 57 210
13 -3 -8 -2 -18 4 -21 5 -4 7 -11 3 -16 -3 -5 0 -16 6 -24 10 -12 9 -15 -4
-15 -10 0 -14 -5 -11 -10 4 -6 10 -8 14 -6 4 3 8 -1 8 -9 0 -8 -3 -15 -7 -15
-4 0 -7 -13 -7 -30 0 -16 5 -30 11 -30 6 0 4 -5 -4 -10 -10 -6 -11 -10 -2 -10
6 0 12 -7 12 -16 0 -12 7 -15 29 -12 23 3 31 0 36 -16 6 -19 8 -19 12 -3 2 9
8 17 13 17 5 0 11 -8 14 -17 4 -15 5 -15 4 2 -1 62 3 77 22 82 11 3 20 9 20
13 0 4 16 27 35 51 19 24 35 52 35 61 0 9 12 30 28 45 15 15 26 31 24 35 -1 4
5 8 14 8 12 0 15 9 13 38 -2 21 1 43 5 50 4 7 5 20 2 28 -4 10 -1 14 6 12 19
-7 38 17 38 47 0 21 4 26 16 21 19 -7 54 20 54 41 0 13 12 17 37 14 8 -1 13
17 15 51 3 47 6 53 25 53 11 0 25 4 29 8 13 12 13 37 1 37 -8 0 -7 4 1 12 18
18 15 38 -5 39 -15 0 -15 2 -3 7 16 7 20 25 8 38 -4 4 -4 12 -1 18 13 19 12
40 0 48 -9 6 -7 11 6 19 17 10 17 13 3 34 -11 17 -12 26 -5 31 8 4 7 9 -2 15
-12 7 -12 9 0 9 11 0 11 3 1 15 -13 16 -4 38 13 32 8 -2 13 -56 15 -176z
m-2231 -3 c-3 -8 -6 -5 -6 6 -1 11 2 17 5 13 3 -3 4 -12 1 -19z m28 -58 c-4
-6 -1 -17 5 -25 7 -8 9 -15 5 -15 -5 0 0 -9 10 -20 14 -15 15 -20 4 -20 -8 0
-10 -3 -4 -8 6 -4 11 -14 13 -22 2 -8 8 -16 13 -18 21 -8 8 -29 -16 -27 -14 2
-25 -1 -25 -6 0 -10 4 -11 35 -12 51 -1 55 2 55 39 0 21 4 33 10 29 6 -4 8
-21 5 -38 -3 -18 -7 -50 -10 -72 -6 -54 -9 -68 -19 -83 -4 -7 -5 -19 -2 -27 3
-9 -1 -15 -9 -15 -17 0 -20 -17 -4 -22 6 -2 12 -18 14 -36 1 -18 4 -35 7 -37
8 -9 34 114 37 176 1 9 8 16 16 16 9 0 14 -5 12 -11 -2 -6 0 -22 5 -35 6 -17
5 -27 -4 -33 -11 -6 -11 -8 0 -8 12 0 12 -20 1 -70 -2 -8 2 -14 9 -12 7 1 12
-8 12 -23 0 -14 -4 -25 -10 -25 -5 0 -10 9 -10 20 0 35 -17 21 -23 -18 -3 -23
-15 -49 -31 -65 -17 -17 -26 -37 -26 -58 0 -31 -1 -32 -15 -13 -13 17 -15 17
-16 2 -4 -50 -18 -98 -27 -98 -2 0 -10 7 -17 17 -7 9 -17 13 -25 8 -10 -6 -9
-9 1 -16 10 -6 11 -9 2 -9 -7 0 -13 -4 -13 -10 0 -5 14 -10 30 -10 20 0 30 -5
30 -15 0 -8 7 -15 15 -15 8 0 15 7 15 15 0 10 10 15 29 15 24 0 28 3 24 20 -8
31 6 87 21 87 8 0 17 -9 19 -19 3 -10 1 -18 -5 -18 -5 0 -7 -4 -4 -9 4 -5 0
-12 -6 -14 -10 -4 -10 -8 1 -15 7 -5 10 -15 7 -21 -4 -6 0 -11 11 -11 10 0 26
-9 36 -20 16 -19 16 -20 -4 -20 -12 0 -28 8 -35 18 -11 15 -13 14 -10 -13 2
-16 4 -36 5 -42 0 -7 5 -13 10 -13 6 0 8 9 6 20 -2 11 0 20 6 20 5 0 9 -16 9
-35 0 -19 4 -35 9 -35 6 0 8 9 6 20 -3 14 2 20 14 20 13 0 18 -7 17 -22 0 -13
4 -23 9 -23 5 0 9 10 9 23 -1 22 5 26 41 23 15 -2 17 0 6 7 -9 7 -10 12 -2 16
6 4 11 18 11 31 0 36 10 53 28 48 13 -3 18 4 19 29 2 21 11 40 28 53 24 20 34
45 16 45 -4 0 -6 11 -3 25 3 19 11 25 29 25 18 0 24 -4 19 -15 -3 -8 -2 -23 1
-32 12 -32 21 19 9 56 -7 25 -7 36 0 38 6 2 9 15 6 28 -2 15 0 25 7 25 7 0 9
5 6 10 -3 6 -2 10 4 10 6 0 8 7 4 15 -3 9 1 23 10 33 8 9 18 34 21 55 5 31 3
37 -12 37 -13 0 -18 7 -17 23 2 13 8 21 16 19 11 -3 12 -1 2 9 -23 24 -13 30
17 12 17 -9 30 -20 30 -24 0 -4 10 -5 23 -3 12 2 16 2 9 -2 -6 -3 -9 -10 -6
-16 4 -5 8 -31 10 -56 4 -55 18 -72 34 -43 9 17 8 25 -5 37 -19 19 -19 40 -1
47 18 7 26 -1 26 -25 0 -10 5 -18 11 -18 5 0 7 -4 4 -10 -3 -5 -2 -10 4 -10 5
0 15 15 22 34 17 48 49 46 50 -4 0 -19 2 -45 3 -57 2 -13 -3 -23 -10 -23 -7 0
-11 10 -9 25 3 34 -8 31 -22 -5 -9 -25 -9 -32 5 -40 10 -5 12 -10 5 -10 -7 0
-13 -11 -13 -25 0 -20 5 -25 24 -25 13 0 26 -7 30 -15 3 -8 12 -15 19 -15 8 0
20 -7 27 -15 9 -11 9 -15 1 -15 -7 0 -10 -4 -7 -9 7 -11 -13 -71 -24 -71 -4 0
-6 -18 -5 -40 2 -29 -1 -40 -11 -40 -8 0 -14 -5 -14 -11 0 -16 -26 -39 -44
-39 -8 0 -20 -9 -26 -20 -8 -14 -8 -20 0 -20 6 0 10 -8 9 -17 -6 -60 11 -70
30 -18 7 19 16 35 21 35 5 0 7 6 4 14 -3 8 -1 17 5 21 6 3 11 1 11 -6 0 -7 7
-4 15 7 13 18 14 16 15 -24 0 -24 -4 -41 -9 -38 -5 4 -7 -4 -3 -16 3 -14 1
-19 -6 -14 -8 5 -14 -7 -18 -34 -4 -22 -10 -40 -15 -40 -5 0 -9 -12 -9 -27 l1
-28 19 23 c17 20 20 21 34 6 15 -14 16 -13 16 10 0 14 5 26 11 26 6 0 9 7 5
15 -3 8 -2 15 3 15 8 0 10 13 12 63 0 15 5 27 10 27 6 0 5 10 -2 23 -11 20
-11 21 5 8 9 -8 19 -11 23 -7 4 3 -2 13 -13 21 -19 15 -19 15 0 30 17 13 17
15 4 15 -9 0 -20 5 -24 12 -5 8 -2 9 9 5 9 -3 19 -1 23 5 4 7 3 8 -4 4 -7 -4
-12 -3 -12 3 0 5 5 13 10 16 6 3 10 17 10 31 0 24 25 35 32 13 2 -5 22 -13 45
-16 39 -5 60 -24 48 -43 -3 -4 -1 -19 4 -32 9 -21 10 -21 12 -3 1 11 1 24 0
28 -1 4 6 10 15 14 12 4 13 7 3 14 -19 11 -4 22 20 14 12 -4 18 -12 14 -21 -3
-7 -1 -14 3 -14 5 0 20 23 34 51 27 55 40 69 40 45 0 -9 -4 -16 -10 -16 -5 0
-10 -5 -10 -11 0 -5 5 -7 10 -4 6 3 10 1 10 -4 0 -6 -8 -11 -17 -11 -15 0 -16
-2 -3 -10 15 -9 23 -60 8 -60 -4 0 -8 -9 -8 -20 0 -11 -4 -20 -10 -20 -5 0 -6
-7 -3 -17 4 -10 2 -14 -4 -10 -6 4 -16 0 -23 -8 -7 -8 -9 -15 -4 -15 4 0 -7
-13 -24 -28 -18 -16 -38 -46 -46 -68 -8 -21 -18 -38 -24 -37 -6 1 -12 -20 -14
-47 -1 -28 0 -50 5 -50 4 0 7 18 7 40 0 22 5 40 10 40 6 0 10 -6 11 -12 0 -7
4 -4 9 7 6 14 9 15 10 5 2 -21 18 19 19 47 1 12 6 34 12 50 8 21 12 24 19 13
5 -8 6 -18 4 -22 -3 -4 2 -5 12 -1 14 5 15 3 4 -17 -8 -15 -8 -20 -1 -16 6 4
11 3 11 -3 0 -5 -8 -12 -17 -14 -15 -4 -15 -5 2 -6 17 -1 21 -8 21 -36 0 -19
-3 -35 -7 -35 -4 0 -5 -13 -4 -29 2 -24 -2 -30 -21 -34 -13 -2 -25 1 -28 7 -3
7 -8 7 -14 -3 -10 -15 -9 -61 2 -79 4 -7 2 -12 -4 -12 -6 0 -8 -4 -5 -10 3 -5
-3 -10 -14 -10 -10 0 -21 5 -23 11 -3 9 -9 8 -24 -1 -17 -10 -30 -10 -75 3
-30 9 -55 12 -57 7 -2 -5 -12 0 -23 11 -27 27 -35 24 -36 -14 0 -25 5 -35 24
-44 22 -11 23 -10 17 9 -4 15 -2 19 7 16 8 -3 13 -13 13 -22 -1 -10 11 -20 37
-28 27 -8 39 -17 39 -30 0 -21 -12 -23 -42 -7 -16 9 -23 8 -29 -2 -7 -11 -9
-10 -9 4 0 9 -7 18 -15 19 -8 0 -21 1 -27 2 -7 1 -15 4 -18 7 -6 7 -87 39 -99
39 -11 0 -1 -53 13 -62 16 -11 28 -10 21 2 -3 6 -1 10 4 10 6 0 11 -9 11 -20
0 -11 4 -20 9 -20 5 0 17 -3 27 -7 13 -5 16 -3 11 10 -3 9 -2 17 3 17 6 0 10
-9 10 -19 0 -11 9 -23 21 -26 25 -8 39 3 19 15 -13 8 -12 10 3 10 10 0 17 -8
17 -20 0 -18 12 -24 38 -18 4 0 6 11 5 22 -3 20 -2 20 6 1 5 -11 6 -24 4 -28
-3 -4 9 -13 26 -20 19 -7 31 -18 31 -29 0 -23 -16 -23 -29 0 -6 9 -11 12 -11
5 0 -8 -21 -4 -64 12 -47 18 -66 21 -69 12 -3 -7 -6 -5 -6 4 -1 18 -44 34 -49
19 -2 -6 -11 -10 -20 -9 -11 0 -12 2 -4 6 17 7 15 23 -3 23 -30 0 -195 74
-195 87 0 14 37 10 73 -9 14 -7 17 -4 17 25 0 29 -5 35 -45 55 -52 25 -58 40
-15 38 16 -1 30 -4 30 -8 0 -17 30 -7 30 10 1 15 2 14 12 -3 22 -38 53 -47 55
-16 1 14 -3 18 -15 14 -15 -4 -15 -3 -2 6 13 10 13 13 -4 26 -24 18 -39 19
-31 3 4 -7 1 -6 -7 3 -12 15 -177 82 -230 94 -37 8 -268 90 -323 115 -89 39
-100 43 -112 41 -8 -1 -13 10 -14 26 -1 17 -3 21 -6 11 -5 -19 -33 -25 -33 -8
0 6 -9 10 -21 10 -32 0 -59 19 -60 43 -1 17 -2 18 -6 5 -8 -33 -23 -19 -23 22
0 26 6 42 16 48 17 10 22 30 29 124 4 59 48 161 58 136 4 -10 8 -10 17 2 9 11
13 12 17 3 2 -7 8 -13 12 -13 4 0 8 6 9 13 9 101 17 143 25 149 7 4 6 12 -3
23 -11 14 -11 16 1 13 10 -2 15 9 17 37 1 22 7 57 14 78 9 29 16 37 35 37 14
0 22 -4 18 -10z m512 -76 c-3 -3 -12 -4 -19 -1 -8 3 -5 6 6 6 11 1 17 -2 13
-5z m-2 -44 c-6 -9 -9 -9 -16 1 -10 17 0 34 13 21 6 -6 7 -16 3 -22z m1652 3
c-3 -3 -11 -2 -17 2 -9 6 -9 10 1 16 14 8 27 -7 16 -18z m-1592 7 c3 -5 2 -10
-4 -10 -5 0 -13 5 -16 10 -3 6 -2 10 4 10 5 0 13 -4 16 -10z m-8 -26 c-3 -3
-12 -4 -19 -1 -8 3 -5 6 6 6 11 1 17 -2 13 -5z m-53 -23 c4 -5 -3 -7 -14 -4
-23 6 -26 13 -6 13 8 0 17 -4 20 -9z m63 -18 c3 -7 -3 -9 -16 -6 -12 3 -21 10
-21 15 0 13 32 6 37 -9z m173 2 c-10 -12 -10 -15 3 -15 22 0 31 -30 9 -31 -14
0 -14 -2 3 -9 18 -8 17 -9 -7 -9 -24 -1 -26 2 -24 32 4 46 5 47 17 47 8 0 8
-5 -1 -15z m-600 -15 c0 -5 -7 -7 -15 -4 -8 4 -15 8 -15 10 0 2 7 4 15 4 8 0
15 -4 15 -10z m1960 -16 c0 -8 -4 -12 -10 -9 -5 3 -10 10 -10 16 0 5 5 9 10 9
6 0 10 -7 10 -16z m-1650 -6 c0 -4 -4 -8 -9 -8 -6 0 -12 4 -15 8 -3 5 1 9 9 9
8 0 15 -4 15 -9z m-300 -8 c0 -5 -5 -10 -11 -10 -5 0 -7 5 -4 10 3 6 8 10 11
10 2 0 4 -4 4 -10z m-320 -50 c0 -16 -4 -30 -10 -30 -5 0 -10 14 -10 30 0 17
5 30 10 30 6 0 10 -13 10 -30z m920 -16 c0 -8 -5 -12 -10 -9 -6 4 -8 11 -5 16
9 14 15 11 15 -7z m-5 -54 c3 -5 1 -10 -4 -10 -6 0 -11 5 -11 10 0 6 2 10 4
10 3 0 8 -4 11 -10z m-370 -40 c-3 -5 -2 -10 3 -10 5 0 10 -11 10 -25 0 -33
-23 -27 -24 6 -2 24 3 39 12 39 3 0 2 -4 -1 -10z m435 -20 c0 -5 -6 -10 -12
-11 -10 0 -10 -2 0 -6 16 -6 16 -33 -1 -33 -7 0 -18 5 -25 12 -9 9 -12 8 -12
-5 0 -9 -4 -17 -9 -17 -8 0 -8 20 -2 60 1 3 6 -2 11 -10 9 -13 12 -13 21 3 11
18 29 23 29 7z m-90 -16 c0 -14 -3 -15 -17 -3 -10 7 -20 15 -22 16 -2 2 5 3
17 3 14 0 22 -6 22 -16z m-380 -14 c0 -5 -5 -10 -11 -10 -8 0 -8 -4 0 -14 10
-11 10 -20 0 -38 -7 -13 -12 -24 -11 -25 8 -11 -1 -21 -13 -17 -17 7 -21 44
-4 44 5 0 7 5 3 11 -3 6 -1 22 7 35 13 24 29 32 29 14z m483 -27 c5 17 37 -10
37 -32 0 -11 -3 -12 -8 -4 -4 7 -17 10 -30 6 -12 -3 -20 -9 -17 -13 3 -5 1
-11 -5 -15 -5 -3 -10 3 -10 14 0 12 -4 21 -10 21 -5 0 -10 7 -10 15 0 11 5 12
24 5 17 -6 26 -5 29 3z m-648 -23 c-3 -5 -12 -10 -18 -10 -7 0 -6 4 3 10 19
12 23 12 15 0z m23 -51 c-1 -24 4 -44 12 -49 7 -4 10 -13 6 -19 -5 -7 -1 -9 9
-5 10 4 15 14 12 25 -3 11 -1 21 4 24 4 3 5 13 2 22 -4 11 -2 14 8 11 9 -3 13
-17 12 -39 -2 -55 -14 -114 -24 -117 -5 -2 -7 -8 -3 -13 3 -5 0 -9 -5 -9 -6 0
-11 -7 -11 -15 0 -8 -7 -15 -15 -15 -8 0 -15 7 -15 15 0 8 -6 15 -12 15 -9 1
-8 4 2 9 19 12 15 101 -5 101 -9 0 -10 11 -4 43 4 23 8 45 9 50 0 4 4 7 10 7
5 0 9 -18 8 -41z m657 11 c-3 -5 -15 -10 -26 -10 -11 0 -17 5 -14 10 3 6 15
10 26 10 11 0 17 -4 14 -10z m-555 -30 c0 -5 -2 -10 -4 -10 -3 0 -8 5 -11 10
-3 6 -1 10 4 10 6 0 11 -4 11 -10z m548 3 c-10 -2 -28 -2 -40 0 -13 2 -5 4 17
4 22 1 32 -1 23 -4z m1339 -9 c-3 -3 -12 -4 -19 -1 -8 3 -5 6 6 6 11 1 17 -2
13 -5z m113 -15 c0 -6 13 -23 29 -39 l30 -27 4 26 c4 23 4 22 6 -6 0 -17 -4
-33 -10 -35 -7 -2 -12 -17 -13 -33 -1 -23 -6 -30 -21 -30 -16 0 -21 -8 -23
-36 -3 -32 -7 -38 -33 -43 -28 -5 -29 -7 -31 -73 l-2 -68 -3 61 c-3 40 1 70
11 89 11 20 12 31 5 36 -6 4 -7 9 -2 12 5 3 9 37 8 75 -1 53 2 69 12 65 8 -3
13 3 13 16 0 12 5 21 10 21 6 0 10 -5 10 -11z m-1333 -5 c-3 -3 -12 -4 -19 -1
-8 3 -5 6 6 6 11 1 17 -2 13 -5z m-792 -94 c3 -5 -1 -10 -9 -10 -9 0 -16 5
-16 10 0 6 4 10 9 10 6 0 13 -4 16 -10z m2453 -236 c-3 -136 -4 -142 -30 -177
-17 -21 -28 -48 -28 -66 l0 -31 -70 0 c-48 0 -69 -4 -68 -12 2 -6 -7 -14 -20
-17 -13 -3 -23 -10 -22 -16 0 -5 -8 -11 -19 -13 -10 -2 -21 -12 -24 -22 -3
-13 -11 -17 -26 -13 -20 5 -21 1 -21 -56 0 -40 -4 -60 -10 -56 -6 4 -8 11 -5
16 4 5 1 9 -4 9 -6 0 -11 -8 -11 -17 0 -12 -3 -14 -11 -6 -11 11 -14 195 -3
238 3 14 11 22 16 19 7 -5 9 4 6 24 -4 30 -4 30 21 18 30 -16 71 -5 71 19 0 8
9 15 20 15 22 0 27 31 21 138 -2 42 0 52 13 52 12 0 16 -10 16 -37 0 -36 4
-40 50 -61 27 -13 52 -23 56 -22 4 1 11 -4 15 -12 7 -10 9 -9 9 5 0 9 4 17 10
17 12 0 19 42 25 160 5 91 10 139 16 150 6 12 10 -116 7 -246z m37 -7 c-1 -73
-6 -111 -14 -120 -11 -10 -12 11 -7 113 3 69 6 143 7 165 l2 40 7 -45 c4 -25
6 -93 5 -153z m-496 106 c-2 -49 2 -69 13 -77 14 -11 30 -86 18 -86 -3 0 -4
-19 -3 -42 2 -24 0 -38 -3 -31 -8 18 -49 -30 -52 -62 -1 -16 -8 -32 -15 -37
-8 -5 -8 -8 0 -8 6 0 9 -9 6 -21 -4 -14 -12 -19 -27 -17 -18 3 -21 9 -19 43 1
22 -1 34 -4 28 -2 -7 -11 -13 -19 -13 -8 0 -14 6 -15 13 -3 52 -15 76 -44 87
-36 14 -30 45 8 44 23 0 27 4 27 29 0 24 4 28 23 25 19 -3 22 1 19 29 -2 17 1
34 7 38 6 3 11 -1 11 -9 0 -9 7 -16 16 -16 8 0 12 4 9 10 -3 5 3 17 14 26 15
13 18 25 14 48 -3 17 -9 35 -14 40 -9 10 12 36 24 29 4 -2 7 -34 6 -70z
m-2359 13 c0 -3 -4 -8 -10 -11 -5 -3 -10 -1 -10 4 0 6 5 11 10 11 6 0 10 -2
10 -4z m2474 -21 c-4 -8 -8 -15 -10 -15 -2 0 -4 7 -4 15 0 8 4 15 10 15 5 0 7
-7 4 -15z m-2414 -5 c0 -13 -11 -13 -30 0 -12 8 -11 10 8 10 12 0 22 -4 22
-10z m75 -31 c11 -16 1 -19 -13 -3 -7 8 -8 14 -3 14 5 0 13 -5 16 -11z m2263
-6 c-5 -24 -27 -28 -25 -4 1 12 7 21 15 21 7 0 12 -8 10 -17z m-2220 -9 c6 -1
19 -2 27 -2 16 -2 21 -32 5 -32 -5 0 -10 5 -10 12 0 6 -3 8 -6 5 -9 -9 -44 11
-44 26 0 7 3 8 8 2 4 -5 13 -10 20 -11z m110 -29 c12 -4 22 -10 22 -14 0 -7
23 -12 68 -15 12 0 22 -4 22 -8 0 -10 100 -39 111 -32 5 3 9 1 9 -4 0 -4 25
-19 55 -31 30 -13 55 -27 55 -32 0 -5 -3 -9 -6 -9 -18 0 -120 34 -125 42 -3 5
-17 10 -30 11 -13 0 -27 5 -30 10 -4 5 -19 11 -34 12 -15 2 -35 11 -44 19 -10
9 -25 14 -34 10 -11 -4 -19 0 -23 10 -7 19 -30 21 -37 4 -3 -8 -6 -6 -6 5 -1
9 -8 17 -16 17 -8 0 -15 4 -15 10 0 10 15 9 58 -5z m-228 -21 c0 -8 -4 -12
-10 -9 -5 3 -10 10 -10 16 0 5 5 9 10 9 6 0 10 -7 10 -16z m112 -47 c4 -7 8
-9 8 -5 0 4 30 -4 66 -18 36 -13 70 -22 75 -19 5 4 12 -1 15 -9 3 -9 10 -14
14 -11 14 9 67 -15 67 -30 0 -18 2 -18 -44 -1 -21 8 -83 31 -137 52 -55 20
-107 43 -115 52 -14 14 -13 15 14 8 16 -4 33 -13 37 -19z m2044 -4 c-10 -10
-19 5 -10 18 6 11 8 11 12 0 2 -7 1 -15 -2 -18z m-2199 -55 c-3 -8 -6 -5 -6 6
-1 11 2 17 5 13 3 -3 4 -12 1 -19z m72 -8 c11 -6 10 -8 -3 -13 -9 -4 -16 -2
-16 3 0 6 -6 10 -14 10 -8 0 -18 5 -22 11 -7 11 25 5 55 -11z m2378 -2 c-3 -8
-6 -5 -6 6 -1 11 2 17 5 13 3 -3 4 -12 1 -19z m-2304 -21 c4 3 7 -1 7 -9 0
-11 -6 -14 -20 -11 -11 3 -20 12 -20 20 0 12 3 13 13 4 8 -6 17 -8 20 -4z
m297 -18 c0 -12 -5 -16 -15 -13 -8 4 -15 15 -15 25 0 12 5 16 15 13 8 -4 15
-15 15 -25z m146 -42 c18 -9 34 -21 34 -26 0 -12 -133 28 -142 43 -4 6 -8 7
-8 1 0 -5 -5 -2 -11 8 -16 27 -6 30 36 13 47 -20 45 -21 47 12 1 26 1 26 5 -4
3 -23 12 -35 39 -47z m-413 38 c4 -8 2 -17 -3 -20 -6 -4 -10 3 -10 14 0 25 6
27 13 6z m24 -17 c-3 -8 -6 -5 -6 6 -1 11 2 17 5 13 3 -3 4 -12 1 -19z m96
-17 c15 -6 27 -16 27 -22 0 -7 -7 -8 -17 -4 -10 4 -24 8 -30 8 -7 0 -13 5 -13
11 0 6 -4 5 -9 -2 -7 -11 -9 -10 -15 3 -3 9 -10 13 -16 10 -5 -3 -10 1 -10 9
0 15 19 12 83 -13z m2061 -16 c3 -22 8 -52 11 -66 5 -19 2 -28 -10 -33 -14 -5
-16 -2 -12 14 3 11 2 22 -1 24 -4 2 -5 27 -3 56 4 59 7 61 15 5z m-1324 10 c0
-8 -4 -15 -10 -15 -5 0 -7 7 -4 15 4 8 8 15 10 15 2 0 4 -7 4 -15z m-621 -40
c5 2 23 -2 40 -11 17 -8 35 -13 41 -9 5 3 10 2 10 -2 0 -5 25 -17 55 -28 30
-10 55 -22 55 -27 0 -11 -54 -1 -90 17 -14 7 -43 18 -65 25 -81 24 -125 43
-125 52 0 6 7 8 15 5 8 -4 17 -1 21 4 3 6 12 2 21 -10 8 -12 18 -19 22 -16z
m441 5 c0 -5 -4 -10 -9 -10 -6 0 -13 5 -16 10 -3 6 1 10 9 10 9 0 16 -4 16
-10z m-760 -10 c0 -5 -5 -10 -11 -10 -5 0 -7 5 -4 10 3 6 8 10 11 10 2 0 4 -4
4 -10z m1080 0 c0 -5 -9 -10 -20 -10 -11 0 -20 5 -20 10 0 6 9 10 20 10 11 0
20 -4 20 -10z m-1003 -22 c-3 -8 -6 -5 -6 6 -1 11 2 17 5 13 3 -3 4 -12 1 -19z
m2240 -30 c-2 -13 -4 -5 -4 17 -1 22 1 32 4 23 2 -10 2 -28 0 -40z m-2215 20
c-7 -7 -12 -8 -12 -2 0 6 3 14 7 17 3 4 9 5 12 2 2 -3 -1 -11 -7 -17z m885 2
c1 -11 -4 -20 -13 -20 -8 0 -14 9 -14 20 0 11 6 20 13 20 7 0 13 -9 14 -20z
m-832 -3 c12 -10 14 -16 7 -21 -7 -4 -12 -2 -12 3 0 6 -7 11 -15 11 -8 0 -15
5 -15 10 0 14 13 13 35 -3z m75 -27 c0 -5 -5 -10 -11 -10 -5 0 -7 5 -4 10 3 6
8 10 11 10 2 0 4 -4 4 -10z m380 -30 c5 0 13 0 16 1 4 0 11 -5 15 -13 7 -11
11 -10 19 2 8 13 10 12 10 -2 0 -10 7 -18 16 -18 8 0 12 4 9 10 -3 5 -1 18 4
27 9 15 10 13 11 -14 0 -18 2 -33 4 -33 2 0 11 -3 19 -6 10 -3 17 2 20 13 4
15 5 15 6 -3 1 -20 18 -34 43 -34 6 0 8 7 4 15 -3 8 -1 15 4 15 6 0 10 -9 10
-20 0 -11 2 -20 4 -20 2 0 11 -3 20 -6 11 -4 16 0 16 12 0 16 2 16 9 4 6 -8 8
-17 5 -21 -2 -4 5 -11 17 -14 14 -5 25 -2 30 6 8 12 13 6 11 -12 -1 -4 12 -12
28 -19 17 -7 30 -19 30 -26 0 -21 -20 -17 -21 4 0 10 -3 12 -6 5 -6 -16 -39
-17 -49 -2 -3 6 -14 9 -23 6 -9 -2 -23 2 -30 10 -7 8 -22 12 -32 10 -11 -3
-19 -2 -19 2 0 6 -43 31 -53 31 -2 0 -1 -15 1 -34 3 -24 11 -37 28 -45 21 -9
24 -8 25 12 1 21 1 20 8 -3 8 -28 39 -39 53 -18 8 10 9 9 4 -4 -7 -22 33 -36
45 -17 7 11 9 10 9 -4 0 -12 12 -23 30 -30 42 -16 38 -34 -5 -29 -19 2 -35 10
-35 16 0 14 -28 15 -49 1 -9 -5 -12 -4 -7 3 7 12 -29 26 -44 17 -5 -3 -10 -2
-10 3 0 5 -17 14 -39 20 -49 15 -51 15 -51 -4 0 -8 -4 -12 -10 -9 -5 3 -10 15
-10 26 0 11 -4 18 -9 15 -5 -3 -14 1 -21 9 -7 8 -18 15 -25 15 -7 0 -18 7 -25
15 -11 13 -15 13 -21 3 -6 -9 -9 -6 -9 10 0 26 -3 26 50 7 56 -20 57 -20 56
15 -1 21 -7 32 -21 36 -48 13 -102 40 -122 61 l-22 23 24 -6 c20 -5 25 -2 26
12 0 16 2 15 9 -3 5 -13 14 -23 20 -23z m27 18 c-3 -8 -6 -5 -6 6 -1 11 2 17
5 13 3 -3 4 -12 1 -19z m1642 -43 c1 -29 -2 -45 -10 -45 -6 0 -9 7 -5 15 3 9
0 15 -9 15 -8 0 -20 10 -26 23 -11 20 -11 21 4 8 15 -11 17 -11 17 2 0 8 6 18
13 20 6 3 12 6 13 6 0 1 1 -19 3 -44z m-1989 15 c0 -5 -2 -10 -4 -10 -3 0 -8
5 -11 10 -3 6 -1 10 4 10 6 0 11 -4 11 -10z m80 -16 c0 -2 -9 0 -20 6 -11 6
-20 13 -20 16 0 2 9 0 20 -6 11 -6 20 -13 20 -16z m91 -13 c6 10 9 7 9 -12 l0
-26 -35 16 c-19 9 -34 19 -35 23 0 4 12 2 26 -4 21 -10 27 -9 35 3z m2319
-123 c0 -93 -9 -103 -11 -12 -2 72 -1 94 6 94 3 0 5 -37 5 -82z m-2250 47 c0
-8 -2 -15 -4 -15 -2 0 -6 7 -10 15 -3 8 -1 15 4 15 6 0 10 -7 10 -15z m1720
-14 c7 -14 7 -22 -2 -27 -6 -4 -8 -3 -4 4 3 6 2 13 -4 17 -10 6 -14 25 -5 25
2 0 9 -9 15 -19z m468 -195 c5 253 32 280 32 32 0 -205 -5 -248 -30 -248 -10
0 -18 -6 -17 -12 1 -37 -4 -46 -22 -41 -13 3 -20 -2 -25 -21 -5 -19 -13 -26
-31 -26 -22 0 -25 -4 -25 -35 l0 -35 -59 0 c-45 0 -60 -4 -65 -16 -4 -10 -14
-14 -26 -11 -16 4 -20 0 -20 -19 0 -17 6 -24 19 -24 20 0 177 -47 196 -58 6
-4 15 -8 20 -9 40 -10 145 -50 152 -57 4 -5 -3 -5 -16 -1 -14 4 -21 3 -18 -2
3 -5 -68 -39 -158 -75 -142 -57 -162 -63 -149 -43 13 20 13 24 -2 39 -19 20
-11 34 10 17 8 -7 13 -21 11 -32 -2 -10 0 -19 4 -19 13 0 35 30 27 37 -3 3 -6
1 -6 -5 0 -7 -5 -12 -11 -12 -5 0 -8 4 -5 9 9 14 -28 40 -85 60 -30 11 -54 24
-53 30 1 6 2 29 3 50 1 33 5 40 24 43 12 2 27 -4 34 -12 9 -12 10 -10 6 12 -5
24 -8 25 -44 21 -33 -5 -39 -3 -39 13 0 11 -7 27 -14 37 -14 18 -14 18 -19 0
-3 -10 -5 57 -6 150 -1 105 3 167 9 167 6 0 10 -13 10 -30 0 -16 4 -30 10 -30
5 0 10 33 12 73 3 61 6 72 21 72 10 0 21 6 26 13 4 7 12 12 17 11 21 -4 54 2
53 9 -1 4 -1 17 0 30 1 28 31 30 31 2 0 -12 7 -20 16 -20 12 0 14 3 6 13 -6 7
-13 27 -16 44 -5 28 -4 31 15 26 14 -4 19 -12 16 -24 -3 -11 0 -22 7 -27 7 -4
15 -15 19 -24 3 -10 13 -18 22 -18 8 0 15 -9 15 -20 0 -11 7 -20 15 -20 8 0
15 -8 15 -19 0 -12 9 -20 25 -23 23 -5 25 -2 25 31 1 56 8 141 17 196 6 40 9
16 13 -115 5 -149 6 -154 8 -54z m-1255 -74 c10 -2 17 3 17 13 0 9 5 13 10 10
6 -3 10 -29 10 -57 0 -38 -5 -56 -22 -74 -28 -29 -38 -30 -38 -4 0 13 -5 18
-15 14 -8 -4 -15 -12 -15 -20 0 -8 -4 -14 -10 -14 -5 0 -10 9 -10 20 0 11 -4
20 -9 20 -11 0 10 83 24 92 5 4 6 8 1 8 -5 0 -3 6 3 13 6 8 13 24 15 38 7 38
9 37 15 -11 4 -32 11 -46 24 -48z m693 74 c3 -8 14 -16 25 -19 21 -6 27 -37 6
-37 -8 0 -11 -13 -9 -43 4 -42 5 -43 34 -39 30 5 30 4 25 -37 -2 -23 -1 -44 4
-47 5 -3 9 4 9 15 0 25 15 28 24 5 3 -9 6 -65 6 -125 0 -94 -2 -109 -16 -109
-9 0 -33 -8 -53 -19 -20 -10 -48 -24 -63 -31 -16 -8 -28 -19 -28 -27 0 -7 -11
-13 -25 -13 -14 0 -25 4 -25 9 0 5 -7 12 -16 15 -10 4 -13 2 -8 -6 5 -7 0 -9
-14 -6 -14 4 -22 2 -22 -7 0 -7 -7 -15 -15 -19 -12 -4 -15 3 -15 34 0 30 -4
40 -16 40 -11 0 -14 -6 -9 -20 4 -11 2 -20 -4 -20 -6 0 -11 9 -11 20 0 11 -4
20 -10 20 -5 0 -10 -6 -10 -14 0 -24 -21 -30 -27 -8 -6 26 -41 18 -45 -12 -3
-18 -11 -21 -50 -24 -43 -3 -48 -6 -48 -26 0 -18 -7 -25 -31 -30 -26 -5 -29
-8 -19 -21 10 -12 7 -15 -15 -21 -18 -4 -28 -15 -32 -35 -6 -29 -54 -71 -60
-52 -3 8 -13 7 -33 0 -26 -10 -30 -17 -30 -48 0 -31 -4 -38 -22 -41 -16 -2
-26 -13 -33 -36 -7 -26 -17 -34 -48 -43 -47 -12 -77 -4 -77 22 0 13 7 19 23
19 12 0 17 3 11 8 -12 7 -15 42 -4 42 3 0 6 10 7 21 3 29 10 34 28 19 9 -8 15
-8 15 -2 0 6 -4 13 -8 16 -5 3 -5 27 -1 53 4 26 8 107 9 178 0 83 4 125 9 115
6 -8 7 -18 5 -22 -3 -4 0 -8 5 -8 6 0 11 6 11 14 0 8 9 18 20 21 11 3 20 11
20 16 0 6 -8 5 -21 -1 -11 -7 -23 -9 -26 -6 -3 3 6 10 21 16 15 5 37 15 49 21
21 10 21 10 3 -5 -25 -20 -15 -31 14 -16 14 7 19 17 16 27 -5 13 -4 14 9 3 9
-7 19 -10 22 -6 4 4 1 11 -7 16 -9 6 -10 10 -3 10 6 0 18 6 25 13 32 31 77 57
92 51 12 -5 14 0 9 29 -4 26 -1 36 11 40 12 5 16 1 16 -15 0 -17 3 -18 15 -8
12 10 16 9 21 -5 8 -21 -17 -40 -29 -22 -6 8 -7 8 -4 -3 2 -8 9 -15 16 -15 6
0 16 -7 22 -15 8 -13 11 -13 20 3 12 21 29 13 29 -14 0 -10 5 -19 11 -19 6 0
9 7 5 15 -3 9 0 15 9 15 8 0 15 -7 15 -15 0 -8 5 -15 11 -15 6 0 9 7 5 15 -6
16 31 48 46 39 4 -3 8 6 8 20 0 14 -4 26 -10 26 -5 0 0 11 11 24 12 14 28 22
35 19 20 -8 17 14 -3 26 -16 9 -16 10 5 11 13 0 22 6 22 16 0 10 6 14 15 10 8
-3 19 3 25 12 8 15 11 15 20 2 8 -12 12 -13 19 -2 4 8 12 14 17 15 5 1 8 5 7
10 -2 4 6 7 16 7 20 0 35 25 25 41 -3 5 0 9 6 9 6 0 13 -6 16 -14z m-1439
-448 c-3 -7 -5 -2 -5 12 0 14 2 19 5 13 2 -7 2 -19 0 -25z m1632 -142 c-2 -2
-15 -7 -29 -10 l-25 -7 25 15 c21 12 42 14 29 2z m16 -166 c-3 -5 -12 -10 -18
-10 -7 0 -6 4 3 10 19 12 23 12 15 0z"/>
<path d="M3739 3900 c-9 -5 -26 -8 -38 -5 -12 2 -19 0 -16 -4 4 -8 -35 -23
-51 -20 -4 0 -10 -3 -13 -8 -7 -9 -63 -32 -98 -40 -22 -5 -33 -33 -13 -33 6 0
10 5 10 11 0 6 6 9 14 6 7 -3 37 5 65 18 28 13 51 21 51 18 0 -3 7 0 15 7 8 7
15 10 15 6 0 -4 11 1 24 9 19 12 26 13 32 4 5 -9 10 -5 16 11 10 28 8 31 -13
20z"/>
<path d="M3660 3558 c0 -9 5 -20 10 -23 13 -8 13 5 0 25 -8 13 -10 13 -10 -2z"/>
<path d="M3625 3552 c-13 -9 -17 -32 -6 -32 5 0 11 9 14 20 6 22 6 22 -8 12z"/>
<path d="M3575 3529 c-4 -6 -5 -13 -2 -16 7 -7 27 6 27 18 0 12 -17 12 -25 -2z"/>
<path d="M3533 3495 c0 -14 3 -25 8 -25 5 0 9 11 9 25 0 14 -4 25 -9 25 -5 0
-8 -11 -8 -25z"/>
<path d="M3715 3490 c-3 -5 1 -10 10 -10 9 0 13 5 10 10 -3 6 -8 10 -10 10 -2
0 -7 -4 -10 -10z"/>
<path d="M3670 3469 c0 -5 5 -7 10 -4 6 3 10 8 10 11 0 2 -4 4 -10 4 -5 0 -10
-5 -10 -11z"/>
<path d="M4010 3160 c0 -5 5 -10 10 -10 6 0 10 5 10 10 0 6 -4 10 -10 10 -5 0
-10 -4 -10 -10z"/>
<path d="M3180 3181 c0 -11 5 -23 10 -26 6 -4 10 5 10 19 0 14 -4 26 -10 26
-5 0 -10 -9 -10 -19z"/>
<path d="M3133 3176 c-41 -14 -52 -26 -22 -22 27 3 66 22 59 29 -3 2 -19 -1
-37 -7z"/>
<path d="M3065 3150 c-3 -5 -1 -10 4 -10 6 0 11 5 11 10 0 6 -2 10 -4 10 -3 0
-8 -4 -11 -10z"/>
<path d="M3018 3137 c-38 -15 -36 -29 2 -16 17 6 30 15 30 20 0 5 -1 9 -2 8
-2 -1 -15 -6 -30 -12z"/>
<path d="M2950 3110 c-13 -8 -13 -10 2 -10 9 0 20 5 23 10 8 13 -5 13 -25 0z"/>
<path d="M3197 3025 c3 -14 10 -25 15 -25 13 0 6 43 -8 47 -7 2 -10 -6 -7 -22z"/>
<path d="M2890 2960 c0 -5 5 -10 10 -10 6 0 10 5 10 10 0 6 -4 10 -10 10 -5 0
-10 -4 -10 -10z"/>
<path d="M2890 2925 c0 -8 5 -15 10 -15 6 0 10 7 10 15 0 8 -4 15 -10 15 -5 0
-10 -7 -10 -15z"/>
<path d="M3315 2930 c3 -5 8 -10 11 -10 2 0 4 5 4 10 0 6 -5 10 -11 10 -5 0
-7 -4 -4 -10z"/>
<path d="M2890 2889 c0 -5 5 -7 10 -4 6 3 10 8 10 11 0 2 -4 4 -10 4 -5 0 -10
-5 -10 -11z"/>
<path d="M3190 2889 c0 -5 5 -7 10 -4 6 3 10 8 10 11 0 2 -4 4 -10 4 -5 0 -10
-5 -10 -11z"/>
<path d="M2890 2860 c0 -5 5 -10 10 -10 6 0 10 5 10 10 0 6 -4 10 -10 10 -5 0
-10 -4 -10 -10z"/>
<path d="M3190 2861 c0 -5 9 -7 20 -4 11 3 20 7 20 9 0 2 -9 4 -20 4 -11 0
-20 -4 -20 -9z"/>
<path d="M3111 2844 c0 -11 3 -14 6 -6 3 7 2 16 -1 19 -3 4 -6 -2 -5 -13z"/>
<path d="M3207 2829 c7 -7 15 -10 18 -7 3 3 -2 9 -12 12 -14 6 -15 5 -6 -5z"/>
<path d="M2890 2819 c0 -5 5 -7 10 -4 6 3 10 8 10 11 0 2 -4 4 -10 4 -5 0 -10
-5 -10 -11z"/>
<path d="M2890 2790 c0 -5 5 -10 10 -10 6 0 10 5 10 10 0 6 -4 10 -10 10 -5 0
-10 -4 -10 -10z"/>
<path d="M2961 2784 c0 -11 3 -14 6 -6 3 7 2 16 -1 19 -3 4 -6 -2 -5 -13z"/>
<path d="M3111 2784 c0 -11 3 -14 6 -6 3 7 2 16 -1 19 -3 4 -6 -2 -5 -13z"/>
<path d="M2890 2760 c0 -5 5 -10 10 -10 6 0 10 5 10 10 0 6 -4 10 -10 10 -5 0
-10 -4 -10 -10z"/>
<path d="M3170 2711 c0 -6 5 -13 10 -16 6 -3 10 1 10 9 0 9 -4 16 -10 16 -5 0
-10 -4 -10 -9z"/>
<path d="M3115 2700 c-3 -5 -1 -10 4 -10 6 0 11 5 11 10 0 6 -2 10 -4 10 -3 0
-8 -4 -11 -10z"/>
<path d="M3145 2700 c3 -5 8 -10 11 -10 2 0 4 5 4 10 0 6 -5 10 -11 10 -5 0
-7 -4 -4 -10z"/>
<path d="M3625 2710 c-3 -5 -1 -10 4 -10 6 0 11 5 11 10 0 6 -2 10 -4 10 -3 0
-8 -4 -11 -10z"/>
<path d="M3598 2653 c7 -3 16 -2 19 1 4 3 -2 6 -13 5 -11 0 -14 -3 -6 -6z"/>
<path d="M3638 2653 c7 -3 16 -2 19 1 4 3 -2 6 -13 5 -11 0 -14 -3 -6 -6z"/>
<path d="M3144 2434 c-18 -14 -18 -15 4 -4 12 6 22 13 22 15 0 8 -5 6 -26 -11z"/>
<path d="M3030 2390 c-12 -7 -10 -9 8 -7 12 0 22 5 22 9 0 11 -12 10 -30 -2z"/>
<path d="M2890 2335 c0 -14 4 -25 9 -25 5 0 9 11 9 25 0 14 -4 25 -9 25 -5 0
-9 -11 -9 -25z"/>
<path d="M2890 2269 c0 -5 5 -7 10 -4 6 3 10 8 10 11 0 2 -4 4 -10 4 -5 0 -10
-5 -10 -11z"/>
<path d="M2890 2105 c0 -8 4 -15 10 -15 5 0 7 7 4 15 -4 8 -8 15 -10 15 -2 0
-4 -7 -4 -15z"/>
<path d="M1600 2788 c0 -6 -3 -8 -7 -5 -9 10 -32 -25 -33 -51 0 -13 9 -32 19
-43 l19 -21 11 38 c14 49 14 94 1 94 -5 0 -10 -5 -10 -12z"/>
<path d="M1530 2625 c0 -8 5 -15 10 -15 6 0 10 7 10 15 0 8 -4 15 -10 15 -5 0
-10 -7 -10 -15z"/>
<path d="M1515 2590 c3 -5 8 -10 11 -10 2 0 4 5 4 10 0 6 -5 10 -11 10 -5 0
-7 -4 -4 -10z"/>
<path d="M1405 2580 c3 -5 8 -10 11 -10 2 0 4 5 4 10 0 6 -5 10 -11 10 -5 0
-7 -4 -4 -10z"/>
<path d="M2225 2531 c-3 -6 -3 -11 1 -11 4 0 -1 -7 -12 -15 -13 -10 -16 -17
-8 -22 7 -5 12 -17 12 -28 -1 -44 2 -54 16 -49 8 3 12 13 9 25 -4 13 0 19 12
19 14 0 15 3 6 14 -8 9 -8 15 -2 18 6 1 12 14 13 28 2 19 -2 26 -19 28 -11 2
-24 -2 -28 -7z"/>
<path d="M1505 2522 c-16 -11 -46 -74 -32 -67 6 4 5 1 -3 -7 -16 -14 -20 -24
-28 -70 -3 -22 0 -28 15 -28 30 0 65 75 61 132 -2 29 -7 45 -13 40z"/>
<path d="M2104 2482 c-11 -6 -18 -43 -15 -84 1 -10 8 -18 16 -18 12 0 15 13
15 55 0 30 -1 55 -2 55 -2 0 -8 -4 -14 -8z"/>
<path d="M1950 2374 c0 -8 5 -12 10 -9 6 3 10 10 10 16 0 5 -4 9 -10 9 -5 0
-10 -7 -10 -16z"/>
<path d="M1320 2360 c0 -5 5 -10 11 -10 5 0 7 5 4 10 -3 6 -8 10 -11 10 -2 0
-4 -4 -4 -10z"/>
<path d="M1395 2360 c-3 -5 -1 -10 4 -10 6 0 11 5 11 10 0 6 -2 10 -4 10 -3 0
-8 -4 -11 -10z"/>
<path d="M2490 2360 c0 -5 5 -10 11 -10 5 0 7 5 4 10 -3 6 -8 10 -11 10 -2 0
-4 -4 -4 -10z"/>
<path d="M1960 2334 c0 -8 5 -12 10 -9 6 3 10 10 10 16 0 5 -4 9 -10 9 -5 0
-10 -7 -10 -16z"/>
<path d="M2590 2339 c0 -5 5 -7 10 -4 6 3 10 8 10 11 0 2 -4 4 -10 4 -5 0 -10
-5 -10 -11z"/>
<path d="M1395 2330 c-3 -5 -1 -10 4 -10 6 0 11 5 11 10 0 6 -2 10 -4 10 -3 0
-8 -4 -11 -10z"/>
<path d="M2491 2335 c-11 -47 -11 -69 -1 -59 6 6 10 24 7 40 -2 16 -5 25 -6
19z"/>
<path d="M1440 2320 c0 -5 5 -10 11 -10 5 0 7 5 4 10 -3 6 -8 10 -11 10 -2 0
-4 -4 -4 -10z"/>
<path d="M1530 2249 c0 -5 5 -7 10 -4 6 3 10 8 10 11 0 2 -4 4 -10 4 -5 0 -10
-5 -10 -11z"/>
<path d="M1590 2231 c0 -6 5 -13 10 -16 6 -3 10 1 10 9 0 9 -4 16 -10 16 -5 0
-10 -4 -10 -9z"/>
<path d="M1660 2221 c0 -25 6 -27 13 -6 4 8 2 17 -3 20 -6 4 -10 -3 -10 -14z"/>
<path d="M2394 2215 c-10 -8 -16 -15 -12 -15 4 0 -1 -20 -12 -45 -11 -25 -17
-45 -14 -45 2 0 0 -9 -6 -20 -6 -11 -8 -24 -5 -29 7 -12 45 -1 45 13 0 6 7 24
15 39 17 32 29 117 17 117 -5 0 -17 -7 -28 -15z"/>
<path d="M1913 2171 c-1 -32 1 -33 13 -17 7 11 20 16 29 13 26 -10 17 7 -13
24 l-28 16 -1 -36z"/>
<path d="M1960 2200 c0 -5 5 -10 10 -10 6 0 10 5 10 10 0 6 -4 10 -10 10 -5 0
-10 -4 -10 -10z"/>
<path d="M2154 2202 c3 -5 2 -12 -4 -14 -15 -5 -20 -68 -5 -68 15 0 25 79 11
87 -5 3 -6 1 -2 -5z"/>
<path d="M1834 2170 c0 -11 5 -20 11 -20 6 0 11 9 12 20 1 11 -4 20 -10 20 -7
0 -13 -9 -13 -20z"/>
<path d="M2082 2125 c0 -43 11 -59 21 -32 6 18 -4 77 -14 77 -4 0 -8 -20 -7
-45z"/>
<path d="M2040 2139 c0 -5 5 -7 10 -4 6 3 10 8 10 11 0 2 -4 4 -10 4 -5 0 -10
-5 -10 -11z"/>
<path d="M2227 2136 c-4 -10 -5 -21 -2 -24 9 -9 17 6 13 25 -3 17 -4 17 -11
-1z"/>
<path d="M1910 2109 c0 -5 5 -7 10 -4 6 3 10 8 10 11 0 2 -4 4 -10 4 -5 0 -10
-5 -10 -11z"/>
<path d="M1960 2100 c0 -11 5 -20 10 -20 6 0 10 9 10 20 0 11 -4 20 -10 20 -5
0 -10 -9 -10 -20z"/>
<path d="M2216 2085 c4 -8 10 -12 15 -9 11 6 2 24 -11 24 -5 0 -7 -7 -4 -15z"/>
<path d="M2210 2050 c0 -5 5 -10 11 -10 5 0 7 5 4 10 -3 6 -8 10 -11 10 -2 0
-4 -4 -4 -10z"/>
<path d="M2315 2025 c1 -20 5 -39 9 -43 5 -4 7 0 6 8 -4 27 0 41 10 35 15 -9
12 4 -4 21 -21 20 -23 18 -21 -21z"/>
<path d="M2442 2031 c1 -16 5 -28 9 -26 6 5 0 55 -7 55 -3 0 -3 -13 -2 -29z"/>
<path d="M2440 1960 c0 -16 2 -30 4 -30 2 0 6 14 8 30 3 17 1 30 -4 30 -4 0
-8 -13 -8 -30z"/>
<path d="M2490 1970 c0 -14 5 -18 17 -13 11 4 13 8 5 11 -7 2 -10 8 -6 13 3 5
0 9 -5 9 -6 0 -11 -9 -11 -20z"/>
<path d="M2200 1942 c0 -18 6 -32 16 -36 24 -9 29 0 13 21 -11 13 -11 15 -1 9
10 -6 13 -3 10 10 -2 10 -11 20 -21 22 -13 3 -17 -3 -17 -26z"/>
<path d="M2250 1925 c0 -21 6 -35 16 -39 22 -9 32 3 14 14 -10 7 -11 10 -2 10
20 0 14 37 -8 43 -17 4 -20 0 -20 -28z"/>
<path d="M2132 1864 c2 -32 14 -44 43 -44 15 0 17 2 6 9 -11 7 -11 10 0 15 11
5 11 7 1 12 -6 3 -10 10 -6 15 3 5 1 9 -5 9 -5 0 -16 3 -25 6 -13 5 -16 0 -14
-22z"/>
<path d="M1780 2339 c0 -5 5 -7 10 -4 6 3 10 8 10 11 0 2 -4 4 -10 4 -5 0 -10
-5 -10 -11z"/>
<path d="M4055 2010 c3 -5 8 -10 11 -10 2 0 4 5 4 10 0 6 -5 10 -11 10 -5 0
-7 -4 -4 -10z"/>
<path d="M3695 2010 c3 -5 8 -10 11 -10 2 0 4 5 4 10 0 6 -5 10 -11 10 -5 0
-7 -4 -4 -10z"/>
<path d="M3731 1954 c0 -11 3 -14 6 -6 3 7 2 16 -1 19 -3 4 -6 -2 -5 -13z"/>
<path d="M2200 1630 c0 -20 5 -30 15 -30 9 0 15 9 15 24 0 13 -7 26 -15 30
-11 4 -15 -2 -15 -24z"/>
<path d="M4212 1260 c0 -19 2 -27 5 -17 2 9 2 25 0 35 -3 9 -5 1 -5 -18z"/>
<path d="M3810 1074 c0 -26 2 -45 4 -43 9 9 13 80 5 85 -5 3 -9 -16 -9 -42z"/>
<path d="M3930 940 c0 -5 7 -7 15 -4 8 4 23 0 33 -7 15 -13 16 -12 3 4 -14 18
-51 24 -51 7z"/>
<path d="M3210 1150 c20 -13 33 -13 25 0 -3 6 -14 10 -23 10 -15 0 -15 -2 -2
-10z"/>
<path d="M3715 1020 c-3 -5 -1 -10 4 -10 6 0 11 5 11 10 0 6 -2 10 -4 10 -3 0
-8 -4 -11 -10z"/>
<path d="M3570 970 c-23 -7 -23 -8 -3 -9 12 -1 25 4 28 9 3 6 5 10 3 9 -2 -1
-14 -5 -28 -9z"/>
<path d="M2930 749 c0 -5 5 -7 10 -4 6 3 10 8 10 11 0 2 -4 4 -10 4 -5 0 -10
-5 -10 -11z"/>
</g>
</svg>
