<?xml version="1.0" encoding="UTF-8"?><svg xmlns="http://www.w3.org/2000/svg" xmlns:xlink="http://www.w3.org/1999/xlink" fill-opacity="1" color-rendering="auto" color-interpolation="auto" text-rendering="auto" stroke="black" stroke-linecap="square" width="408" stroke-miterlimit="10" shape-rendering="auto" stroke-opacity="1" fill="black" stroke-dasharray="none" font-weight="normal" stroke-width="1" height="308" font-family="'Dialog'" font-style="normal" stroke-linejoin="miter" font-size="12px" stroke-dashoffset="0" image-rendering="auto">
  <!--Generated by ySVG 2.5-->
  <defs id="genericDefs"/>
  <g>
    <defs id="defs1">
      <clipPath clipPathUnits="userSpaceOnUse" id="clipPath1">
        <path d="M0 0 L408 0 L408 308 L0 308 L0 0 Z"/>
      </clipPath>
      <clipPath clipPathUnits="userSpaceOnUse" id="clipPath2">
        <path d="M893 675 L1301 675 L1301 983 L893 983 L893 675 Z"/>
      </clipPath>
    </defs>
    <g fill="white" text-rendering="geometricPrecision" shape-rendering="geometricPrecision" transform="translate(-893,-675)" stroke="white">
      <rect x="893" width="408" height="308" y="675" clip-path="url(#clipPath2)" stroke="none"/>
    </g>
    <g fill="rgb(245,245,245)" text-rendering="geometricPrecision" shape-rendering="geometricPrecision" transform="matrix(1,0,0,1,-893,-675)" stroke="rgb(245,245,245)">
      <rect x="908.8619" y="690.334" clip-path="url(#clipPath2)" width="188" rx="4" ry="4" height="131.666" stroke="none"/>
      <rect x="908.8619" y="690.334" clip-path="url(#clipPath2)" fill="rgb(235,235,235)" width="188" height="21.666" stroke="none"/>
    </g>
    <g font-size="15px" stroke-linecap="butt" transform="matrix(1,0,0,1,-893,-675)" text-rendering="geometricPrecision" font-family="sans-serif" shape-rendering="geometricPrecision" stroke-miterlimit="1.45">
      <text x="932.0811" xml:space="preserve" y="706.8359" clip-path="url(#clipPath2)" stroke="none">Region 1 - West Coast</text>
      <rect x="908.8619" y="690.334" clip-path="url(#clipPath2)" fill="none" width="188" stroke-dasharray="6,2" rx="4" ry="4" height="131.666"/>
    </g>
    <g fill="rgb(255,204,0)" text-rendering="geometricPrecision" shape-rendering="geometricPrecision" transform="matrix(1,0,0,1,-893,-675)" stroke="rgb(255,204,0)">
      <rect x="965.7184" width="74.2871" height="30" y="727" clip-path="url(#clipPath2)" stroke="none"/>
    </g>
    <g text-rendering="geometricPrecision" stroke-miterlimit="1.45" shape-rendering="geometricPrecision" transform="matrix(1,0,0,1,-893,-675)" stroke-linecap="butt">
      <rect fill="none" x="965.7184" width="74.2871" height="30" y="727" clip-path="url(#clipPath2)"/>
      <text x="972.7183" xml:space="preserve" y="746.5352" clip-path="url(#clipPath2)" font-family="sans-serif" stroke="none">Partition 1</text>
    </g>
    <g fill="rgb(153,204,0)" text-rendering="geometricPrecision" shape-rendering="geometricPrecision" transform="matrix(1,0,0,1,-893,-675)" stroke="rgb(153,204,0)">
      <rect x="965.7184" width="74.2871" height="30" y="777" clip-path="url(#clipPath2)" stroke="none"/>
    </g>
    <g text-rendering="geometricPrecision" stroke-miterlimit="1.45" shape-rendering="geometricPrecision" transform="matrix(1,0,0,1,-893,-675)" stroke-linecap="butt">
      <rect fill="none" x="965.7184" width="74.2871" height="30" y="777" clip-path="url(#clipPath2)"/>
      <text x="972.7183" xml:space="preserve" y="796.5352" clip-path="url(#clipPath2)" font-family="sans-serif" stroke="none">Partition 2</text>
    </g>
    <g fill="rgb(245,245,245)" text-rendering="geometricPrecision" shape-rendering="geometricPrecision" transform="matrix(1,0,0,1,-893,-675)" stroke="rgb(245,245,245)">
      <rect x="1126.8619" y="690.334" clip-path="url(#clipPath2)" width="159" rx="4" ry="4" height="131.666" stroke="none"/>
      <rect x="1126.8619" y="690.334" clip-path="url(#clipPath2)" fill="rgb(235,235,235)" width="159" height="21.666" stroke="none"/>
    </g>
    <g font-size="15px" stroke-linecap="butt" transform="matrix(1,0,0,1,-893,-675)" text-rendering="geometricPrecision" font-family="sans-serif" shape-rendering="geometricPrecision" stroke-miterlimit="1.45">
      <text x="1150.8175" xml:space="preserve" y="706.8359" clip-path="url(#clipPath2)" stroke="none">Region 2 - Europe</text>
      <rect x="1126.8619" y="690.334" clip-path="url(#clipPath2)" fill="none" width="159" stroke-dasharray="6,2" rx="4" ry="4" height="131.666"/>
    </g>
    <g fill="rgb(153,204,0)" text-rendering="geometricPrecision" shape-rendering="geometricPrecision" transform="matrix(1,0,0,1,-893,-675)" stroke="rgb(153,204,0)">
      <rect x="1169.2184" width="74.2871" height="30" y="727" clip-path="url(#clipPath2)" stroke="none"/>
    </g>
    <g text-rendering="geometricPrecision" stroke-miterlimit="1.45" shape-rendering="geometricPrecision" transform="matrix(1,0,0,1,-893,-675)" stroke-linecap="butt">
      <rect fill="none" x="1169.2184" width="74.2871" height="30" y="727" clip-path="url(#clipPath2)"/>
      <text x="1176.2184" xml:space="preserve" y="746.5352" clip-path="url(#clipPath2)" font-family="sans-serif" stroke="none">Partition 2</text>
    </g>
    <g fill="rgb(51,102,255)" text-rendering="geometricPrecision" shape-rendering="geometricPrecision" transform="matrix(1,0,0,1,-893,-675)" stroke="rgb(51,102,255)">
      <rect x="1169.2184" width="74.2871" height="30" y="777" clip-path="url(#clipPath2)" stroke="none"/>
    </g>
    <g text-rendering="geometricPrecision" stroke-miterlimit="1.45" shape-rendering="geometricPrecision" transform="matrix(1,0,0,1,-893,-675)" stroke-linecap="butt">
      <rect fill="none" x="1169.2184" width="74.2871" height="30" y="777" clip-path="url(#clipPath2)"/>
      <text x="1176.2184" xml:space="preserve" y="796.5352" clip-path="url(#clipPath2)" font-family="sans-serif" stroke="none">Partition 3</text>
    </g>
    <g fill="rgb(245,245,245)" text-rendering="geometricPrecision" shape-rendering="geometricPrecision" transform="matrix(1,0,0,1,-893,-675)" stroke="rgb(245,245,245)">
      <rect x="1154.2184" y="886.334" clip-path="url(#clipPath2)" width="104.2871" rx="4" ry="4" height="81.666" stroke="none"/>
      <rect x="1154.2184" y="886.334" clip-path="url(#clipPath2)" fill="rgb(235,235,235)" width="104.2871" height="21.666" stroke="none"/>
    </g>
    <g font-size="15px" stroke-linecap="butt" transform="matrix(1,0,0,1,-893,-675)" text-rendering="geometricPrecision" font-family="sans-serif" shape-rendering="geometricPrecision" stroke-miterlimit="1.45">
      <text x="1214.1788" xml:space="preserve" y="902.8359" clip-path="url(#clipPath2)" stroke="none">Client</text>
      <rect x="1154.2184" y="886.334" clip-path="url(#clipPath2)" fill="none" width="104.2871" stroke-dasharray="6,2" rx="4" ry="4" height="81.666"/>
    </g>
    <g fill="rgb(51,102,255)" text-rendering="geometricPrecision" shape-rendering="geometricPrecision" transform="matrix(1,0,0,1,-893,-675)" stroke="rgb(51,102,255)">
      <rect x="1169.2184" width="74.2871" height="30" y="923" clip-path="url(#clipPath2)" stroke="none"/>
    </g>
    <g text-rendering="geometricPrecision" stroke-miterlimit="1.45" shape-rendering="geometricPrecision" transform="matrix(1,0,0,1,-893,-675)" stroke-linecap="butt">
      <rect fill="none" x="1169.2184" width="74.2871" height="30" y="923" clip-path="url(#clipPath2)"/>
      <text x="1176.2184" xml:space="preserve" y="942.5352" clip-path="url(#clipPath2)" font-family="sans-serif" stroke="none">Partition 3</text>
    </g>
  </g>
</svg>
