<?xml version="1.0" encoding="UTF-8"?><svg xmlns="http://www.w3.org/2000/svg" xmlns:xlink="http://www.w3.org/1999/xlink" fill-opacity="1" color-rendering="auto" color-interpolation="auto" text-rendering="auto" stroke="black" stroke-linecap="square" width="755" stroke-miterlimit="10" shape-rendering="auto" stroke-opacity="1" fill="black" stroke-dasharray="none" font-weight="normal" stroke-width="1" height="412" font-family="'Dialog'" font-style="normal" stroke-linejoin="miter" font-size="12px" stroke-dashoffset="0" image-rendering="auto">
  <!--Generated by ySVG 2.5-->
  <defs id="genericDefs"/>
  <g>
    <defs id="defs1">
      <clipPath clipPathUnits="userSpaceOnUse" id="clipPath1">
        <path d="M0 0 L755 0 L755 412 L0 412 L0 0 Z"/>
      </clipPath>
      <clipPath clipPathUnits="userSpaceOnUse" id="clipPath2">
        <path d="M-15 -52 L740 -52 L740 360 L-15 360 L-15 -52 Z"/>
      </clipPath>
    </defs>
    <g fill="white" text-rendering="geometricPrecision" shape-rendering="geometricPrecision" transform="translate(15,52)" stroke="white">
      <rect x="-15" width="755" height="412" y="-52" clip-path="url(#clipPath2)" stroke="none"/>
    </g>
    <g fill="rgb(245,245,245)" text-rendering="geometricPrecision" shape-rendering="geometricPrecision" transform="matrix(1,0,0,1,15,52)" stroke="rgb(245,245,245)">
      <rect x="0" y="-36.666" clip-path="url(#clipPath2)" width="161" rx="4" ry="4" height="381.666" stroke="none"/>
      <rect x="0" y="-36.666" clip-path="url(#clipPath2)" fill="rgb(235,235,235)" width="161" height="21.666" stroke="none"/>
    </g>
    <g font-size="15px" stroke-linecap="butt" transform="matrix(1,0,0,1,15,52)" text-rendering="geometricPrecision" font-family="sans-serif" shape-rendering="geometricPrecision" stroke-miterlimit="1.45">
      <text x="23.8169" xml:space="preserve" y="-20.1641" clip-path="url(#clipPath2)" stroke="none">Primary Post Table</text>
      <rect x="0" y="-36.666" clip-path="url(#clipPath2)" fill="none" width="161" stroke-dasharray="6,2" rx="4" ry="4" height="381.666"/>
    </g>
    <g fill="rgb(255,204,0)" text-rendering="geometricPrecision" shape-rendering="geometricPrecision" transform="matrix(1,0,0,1,15,52)" stroke="rgb(255,204,0)">
      <rect x="53.0742" width="54.8516" height="30" y="0" clip-path="url(#clipPath2)" stroke="none"/>
    </g>
    <g text-rendering="geometricPrecision" stroke-miterlimit="1.45" shape-rendering="geometricPrecision" transform="matrix(1,0,0,1,15,52)" stroke-linecap="butt">
      <rect fill="none" x="53.0742" width="54.8516" height="30" y="0" clip-path="url(#clipPath2)"/>
      <text x="60.0742" xml:space="preserve" y="19.5352" clip-path="url(#clipPath2)" font-family="sans-serif" stroke="none">Post ID</text>
    </g>
    <g fill="rgb(255,204,0)" text-rendering="geometricPrecision" shape-rendering="geometricPrecision" transform="matrix(1,0,0,1,15,52)" stroke="rgb(255,204,0)">
      <rect x="39.3252" width="82.3496" height="30" y="50" clip-path="url(#clipPath2)" stroke="none"/>
    </g>
    <g text-rendering="geometricPrecision" stroke-miterlimit="1.45" shape-rendering="geometricPrecision" transform="matrix(1,0,0,1,15,52)" stroke-linecap="butt">
      <rect fill="none" x="39.3252" width="82.3496" height="30" y="50" clip-path="url(#clipPath2)"/>
      <text x="46.3252" xml:space="preserve" y="69.5352" clip-path="url(#clipPath2)" font-family="sans-serif" stroke="none">Post Author</text>
    </g>
    <g fill="rgb(255,204,0)" text-rendering="geometricPrecision" shape-rendering="geometricPrecision" transform="matrix(1,0,0,1,15,52)" stroke="rgb(255,204,0)">
      <rect x="46.4473" width="68.1055" height="30" y="100" clip-path="url(#clipPath2)" stroke="none"/>
    </g>
    <g text-rendering="geometricPrecision" stroke-miterlimit="1.45" shape-rendering="geometricPrecision" transform="matrix(1,0,0,1,15,52)" stroke-linecap="butt">
      <rect fill="none" x="46.4473" width="68.1055" height="30" y="100" clip-path="url(#clipPath2)"/>
      <text x="53.4473" xml:space="preserve" y="119.5352" clip-path="url(#clipPath2)" font-family="sans-serif" stroke="none">Post Title</text>
    </g>
    <g fill="rgb(255,204,0)" text-rendering="geometricPrecision" shape-rendering="geometricPrecision" transform="matrix(1,0,0,1,15,52)" stroke="rgb(255,204,0)">
      <rect x="36.1816" width="88.6367" height="30" y="150" clip-path="url(#clipPath2)" stroke="none"/>
    </g>
    <g text-rendering="geometricPrecision" stroke-miterlimit="1.45" shape-rendering="geometricPrecision" transform="matrix(1,0,0,1,15,52)" stroke-linecap="butt">
      <rect fill="none" x="36.1816" width="88.6367" height="30" y="150" clip-path="url(#clipPath2)"/>
      <text x="43.1816" xml:space="preserve" y="169.5352" clip-path="url(#clipPath2)" font-family="sans-serif" stroke="none">Post Content</text>
    </g>
    <g fill="rgb(255,204,0)" text-rendering="geometricPrecision" shape-rendering="geometricPrecision" transform="matrix(1,0,0,1,15,52)" stroke="rgb(255,204,0)">
      <rect x="45.9023" width="69.1953" height="30" y="200" clip-path="url(#clipPath2)" stroke="none"/>
    </g>
    <g text-rendering="geometricPrecision" stroke-miterlimit="1.45" shape-rendering="geometricPrecision" transform="matrix(1,0,0,1,15,52)" stroke-linecap="butt">
      <rect fill="none" x="45.9023" width="69.1953" height="30" y="200" clip-path="url(#clipPath2)"/>
      <text x="52.9023" xml:space="preserve" y="219.5352" clip-path="url(#clipPath2)" font-family="sans-serif" stroke="none">Post Date</text>
    </g>
    <g fill="rgb(255,204,0)" text-rendering="geometricPrecision" shape-rendering="geometricPrecision" transform="matrix(1,0,0,1,15,52)" stroke="rgb(255,204,0)">
      <rect x="45.3896" width="70.2207" height="30" y="250" clip-path="url(#clipPath2)" stroke="none"/>
    </g>
    <g text-rendering="geometricPrecision" stroke-miterlimit="1.45" shape-rendering="geometricPrecision" transform="matrix(1,0,0,1,15,52)" stroke-linecap="butt">
      <rect fill="none" x="45.3896" width="70.2207" height="30" y="250" clip-path="url(#clipPath2)"/>
      <text x="52.3896" xml:space="preserve" y="269.5352" clip-path="url(#clipPath2)" font-family="sans-serif" stroke="none">Post Tags</text>
    </g>
    <g fill="rgb(255,204,0)" text-rendering="geometricPrecision" shape-rendering="geometricPrecision" transform="matrix(1,0,0,1,15,52)" stroke="rgb(255,204,0)">
      <rect x="41.5693" width="77.8613" height="30" y="300" clip-path="url(#clipPath2)" stroke="none"/>
    </g>
    <g text-rendering="geometricPrecision" stroke-miterlimit="1.45" shape-rendering="geometricPrecision" transform="matrix(1,0,0,1,15,52)" stroke-linecap="butt">
      <rect fill="none" x="41.5693" width="77.8613" height="30" y="300" clip-path="url(#clipPath2)"/>
      <text x="48.5693" xml:space="preserve" y="319.5352" clip-path="url(#clipPath2)" font-family="sans-serif" stroke="none">Post Image</text>
    </g>
    <g fill="rgb(245,245,245)" text-rendering="geometricPrecision" shape-rendering="geometricPrecision" transform="matrix(1,0,0,1,15,52)" stroke="rgb(245,245,245)">
      <rect x="191" y="-36.666" clip-path="url(#clipPath2)" width="249" rx="4" ry="4" height="131.666" stroke="none"/>
      <rect x="191" y="-36.666" clip-path="url(#clipPath2)" fill="rgb(235,235,235)" width="249" height="21.666" stroke="none"/>
    </g>
    <g font-size="15px" stroke-linecap="butt" transform="matrix(1,0,0,1,15,52)" text-rendering="geometricPrecision" font-family="sans-serif" shape-rendering="geometricPrecision" stroke-miterlimit="1.45">
      <text x="214.8604" xml:space="preserve" y="-20.1641" clip-path="url(#clipPath2)" stroke="none">Secondary Index on Post Table</text>
      <rect x="191" y="-36.666" clip-path="url(#clipPath2)" fill="none" width="249" stroke-dasharray="6,2" rx="4" ry="4" height="131.666"/>
    </g>
    <g fill="rgb(255,204,0)" text-rendering="geometricPrecision" shape-rendering="geometricPrecision" transform="matrix(1,0,0,1,15,52)" stroke="rgb(255,204,0)">
      <rect x="280.9023" width="69.1953" height="30" y="0" clip-path="url(#clipPath2)" stroke="none"/>
    </g>
    <g text-rendering="geometricPrecision" stroke-miterlimit="1.45" shape-rendering="geometricPrecision" transform="matrix(1,0,0,1,15,52)" stroke-linecap="butt">
      <rect fill="none" x="280.9023" width="69.1953" height="30" y="0" clip-path="url(#clipPath2)"/>
      <text x="287.9023" xml:space="preserve" y="19.5352" clip-path="url(#clipPath2)" font-family="sans-serif" stroke="none">Post Date</text>
    </g>
    <g fill="rgb(255,204,0)" text-rendering="geometricPrecision" shape-rendering="geometricPrecision" transform="matrix(1,0,0,1,15,52)" stroke="rgb(255,204,0)">
      <rect x="288.0742" width="54.8516" height="30" y="50" clip-path="url(#clipPath2)" stroke="none"/>
    </g>
    <g text-rendering="geometricPrecision" stroke-miterlimit="1.45" shape-rendering="geometricPrecision" transform="matrix(1,0,0,1,15,52)" stroke-linecap="butt">
      <rect fill="none" x="288.0742" width="54.8516" height="30" y="50" clip-path="url(#clipPath2)"/>
      <text x="295.0742" xml:space="preserve" y="69.5352" clip-path="url(#clipPath2)" font-family="sans-serif" stroke="none">Post ID</text>
    </g>
    <g fill="rgb(245,245,245)" text-rendering="geometricPrecision" shape-rendering="geometricPrecision" transform="matrix(1,0,0,1,15,52)" stroke="rgb(245,245,245)">
      <rect x="470" y="-36.666" clip-path="url(#clipPath2)" width="255" rx="4" ry="4" height="331.666" stroke="none"/>
      <rect x="470" y="-36.666" clip-path="url(#clipPath2)" fill="rgb(235,235,235)" width="255" height="21.666" stroke="none"/>
    </g>
    <g font-size="15px" stroke-linecap="butt" transform="matrix(1,0,0,1,15,52)" text-rendering="geometricPrecision" font-family="sans-serif" shape-rendering="geometricPrecision" stroke-miterlimit="1.45">
      <text x="493.8838" xml:space="preserve" y="-20.1641" clip-path="url(#clipPath2)" stroke="none">Secondary Table - Recent Posts</text>
      <rect x="470" y="-36.666" clip-path="url(#clipPath2)" fill="none" width="255" stroke-dasharray="6,2" rx="4" ry="4" height="331.666"/>
    </g>
    <g fill="rgb(255,204,0)" text-rendering="geometricPrecision" shape-rendering="geometricPrecision" transform="matrix(1,0,0,1,15,52)" stroke="rgb(255,204,0)">
      <rect x="548.6553" width="97.6895" height="30" y="0" clip-path="url(#clipPath2)" stroke="none"/>
    </g>
    <g text-rendering="geometricPrecision" stroke-miterlimit="1.45" shape-rendering="geometricPrecision" transform="matrix(1,0,0,1,15,52)" stroke-linecap="butt">
      <rect fill="none" x="548.6553" width="97.6895" height="30" y="0" clip-path="url(#clipPath2)"/>
      <text x="555.6553" xml:space="preserve" y="19.5352" clip-path="url(#clipPath2)" font-family="sans-serif" stroke="none">Recent Post ID</text>
    </g>
    <g fill="rgb(255,204,0)" text-rendering="geometricPrecision" shape-rendering="geometricPrecision" transform="matrix(1,0,0,1,15,52)" stroke="rgb(255,204,0)">
      <rect x="570.0742" width="54.8516" height="30" y="50" clip-path="url(#clipPath2)" stroke="none"/>
    </g>
    <g text-rendering="geometricPrecision" stroke-miterlimit="1.45" shape-rendering="geometricPrecision" transform="matrix(1,0,0,1,15,52)" stroke-linecap="butt">
      <rect fill="none" x="570.0742" width="54.8516" height="30" y="50" clip-path="url(#clipPath2)"/>
      <text x="577.0742" xml:space="preserve" y="69.5352" clip-path="url(#clipPath2)" font-family="sans-serif" stroke="none">Post ID</text>
    </g>
    <g fill="rgb(255,204,0)" text-rendering="geometricPrecision" shape-rendering="geometricPrecision" transform="matrix(1,0,0,1,15,52)" stroke="rgb(255,204,0)">
      <rect x="563.4473" width="68.1055" height="30" y="100" clip-path="url(#clipPath2)" stroke="none"/>
    </g>
    <g text-rendering="geometricPrecision" stroke-miterlimit="1.45" shape-rendering="geometricPrecision" transform="matrix(1,0,0,1,15,52)" stroke-linecap="butt">
      <rect fill="none" x="563.4473" width="68.1055" height="30" y="100" clip-path="url(#clipPath2)"/>
      <text x="570.4473" xml:space="preserve" y="119.5352" clip-path="url(#clipPath2)" font-family="sans-serif" stroke="none">Post Title</text>
    </g>
    <g fill="rgb(255,204,0)" text-rendering="geometricPrecision" shape-rendering="geometricPrecision" transform="matrix(1,0,0,1,15,52)" stroke="rgb(255,204,0)">
      <rect x="488.79" width="217.4199" height="30" y="150" clip-path="url(#clipPath2)" stroke="none"/>
    </g>
    <g text-rendering="geometricPrecision" stroke-miterlimit="1.45" shape-rendering="geometricPrecision" transform="matrix(1,0,0,1,15,52)" stroke-linecap="butt">
      <rect fill="none" x="488.79" width="217.4199" height="30" y="150" clip-path="url(#clipPath2)"/>
      <text x="495.79" xml:space="preserve" y="169.5352" clip-path="url(#clipPath2)" font-family="sans-serif" stroke="none">When to remove from Recent Posts</text>
    </g>
    <g fill="rgb(255,204,0)" text-rendering="geometricPrecision" shape-rendering="geometricPrecision" transform="matrix(1,0,0,1,15,52)" stroke="rgb(255,204,0)">
      <rect x="556.3252" width="82.3496" height="30" y="200" clip-path="url(#clipPath2)" stroke="none"/>
    </g>
    <g text-rendering="geometricPrecision" stroke-miterlimit="1.45" shape-rendering="geometricPrecision" transform="matrix(1,0,0,1,15,52)" stroke-linecap="butt">
      <rect fill="none" x="556.3252" width="82.3496" height="30" y="200" clip-path="url(#clipPath2)"/>
      <text x="563.3252" xml:space="preserve" y="219.5352" clip-path="url(#clipPath2)" font-family="sans-serif" stroke="none">Post Author</text>
    </g>
    <g fill="rgb(255,204,0)" text-rendering="geometricPrecision" shape-rendering="geometricPrecision" transform="matrix(1,0,0,1,15,52)" stroke="rgb(255,204,0)">
      <rect x="559.7646" width="75.4707" height="30" y="250" clip-path="url(#clipPath2)" stroke="none"/>
    </g>
    <g text-rendering="geometricPrecision" stroke-miterlimit="1.45" shape-rendering="geometricPrecision" transform="matrix(1,0,0,1,15,52)" stroke-linecap="butt">
      <rect fill="none" x="559.7646" width="75.4707" height="30" y="250" clip-path="url(#clipPath2)"/>
      <text x="566.7646" xml:space="preserve" y="269.5352" clip-path="url(#clipPath2)" font-family="sans-serif" stroke="none">Sponsored</text>
    </g>
  </g>
</svg>
