<?xml version="1.0" encoding="UTF-8"?><svg xmlns="http://www.w3.org/2000/svg" xmlns:xlink="http://www.w3.org/1999/xlink" fill-opacity="1" color-rendering="auto" color-interpolation="auto" text-rendering="auto" stroke="black" stroke-linecap="square" width="795" stroke-miterlimit="10" shape-rendering="auto" stroke-opacity="1" fill="black" stroke-dasharray="none" font-weight="normal" stroke-width="1" height="618" font-family="'Dialog'" font-style="normal" stroke-linejoin="miter" font-size="12px" stroke-dashoffset="0" image-rendering="auto">
  <!--Generated by ySVG 2.5-->
  <defs id="genericDefs"/>
  <g>
    <defs id="defs1">
      <clipPath clipPathUnits="userSpaceOnUse" id="clipPath1">
        <path d="M0 0 L795 0 L795 618 L0 618 L0 0 Z"/>
      </clipPath>
      <clipPath clipPathUnits="userSpaceOnUse" id="clipPath2">
        <path d="M-2 223 L793 223 L793 841 L-2 841 L-2 223 Z"/>
      </clipPath>
    </defs>
    <g fill="white" text-rendering="geometricPrecision" shape-rendering="geometricPrecision" transform="translate(2,-223)" stroke="white">
      <rect x="-2" width="795" height="618" y="223" clip-path="url(#clipPath2)" stroke="none"/>
    </g>
    <g fill="rgb(51,204,204)" text-rendering="geometricPrecision" shape-rendering="geometricPrecision" transform="matrix(1,0,0,1,2,-223)" stroke="rgb(51,204,204)">
      <rect x="338.127" width="75.7461" height="30" y="473" clip-path="url(#clipPath2)" stroke="none"/>
    </g>
    <g text-rendering="geometricPrecision" stroke-miterlimit="1.45" shape-rendering="geometricPrecision" transform="matrix(1,0,0,1,2,-223)" stroke-linecap="butt">
      <rect fill="none" x="338.127" width="75.7461" height="30" y="473" clip-path="url(#clipPath2)"/>
      <text x="345.127" xml:space="preserve" y="492.5352" clip-path="url(#clipPath2)" font-family="sans-serif" stroke="none">User Table</text>
    </g>
    <g fill="rgb(51,204,204)" text-rendering="geometricPrecision" shape-rendering="geometricPrecision" transform="matrix(1,0,0,1,2,-223)" stroke="rgb(51,204,204)">
      <rect x="426.0664" width="161.8672" height="30" y="335" clip-path="url(#clipPath2)" stroke="none"/>
    </g>
    <g text-rendering="geometricPrecision" stroke-miterlimit="1.45" shape-rendering="geometricPrecision" transform="matrix(1,0,0,1,2,-223)" stroke-linecap="butt">
      <rect fill="none" x="426.0664" width="161.8672" height="30" y="335" clip-path="url(#clipPath2)"/>
      <text x="433.0664" xml:space="preserve" y="354.5352" clip-path="url(#clipPath2)" font-family="sans-serif" stroke="none">RecommendedUser Table</text>
    </g>
    <g fill="rgb(51,204,204)" text-rendering="geometricPrecision" shape-rendering="geometricPrecision" transform="matrix(1,0,0,1,2,-223)" stroke="rgb(51,204,204)">
      <rect x="338.127" width="74.3281" height="30" y="568" clip-path="url(#clipPath2)" stroke="none"/>
    </g>
    <g text-rendering="geometricPrecision" stroke-miterlimit="1.45" shape-rendering="geometricPrecision" transform="matrix(1,0,0,1,2,-223)" stroke-linecap="butt">
      <rect fill="none" x="338.127" width="74.3281" height="30" y="568" clip-path="url(#clipPath2)"/>
      <text x="345.127" xml:space="preserve" y="587.5352" clip-path="url(#clipPath2)" font-family="sans-serif" stroke="none">Post Table</text>
    </g>
    <g fill="rgb(51,204,204)" text-rendering="geometricPrecision" shape-rendering="geometricPrecision" transform="matrix(1,0,0,1,2,-223)" stroke="rgb(51,204,204)">
      <rect x="439.3154" width="113.3691" height="30" y="696" clip-path="url(#clipPath2)" stroke="none"/>
    </g>
    <g text-rendering="geometricPrecision" stroke-miterlimit="1.45" shape-rendering="geometricPrecision" transform="matrix(1,0,0,1,2,-223)" stroke-linecap="butt">
      <rect fill="none" x="439.3154" width="113.3691" height="30" y="696" clip-path="url(#clipPath2)"/>
      <text x="446.3154" xml:space="preserve" y="715.5352" clip-path="url(#clipPath2)" font-family="sans-serif" stroke="none">RecentPost Table</text>
    </g>
    <g fill="rgb(255,204,0)" text-rendering="geometricPrecision" shape-rendering="geometricPrecision" transform="matrix(1,0,0,1,2,-223)" stroke="rgb(255,204,0)">
      <rect x="102.0693" width="47.8613" height="30" y="473" clip-path="url(#clipPath2)" stroke="none"/>
    </g>
    <g text-rendering="geometricPrecision" stroke-miterlimit="1.45" shape-rendering="geometricPrecision" transform="matrix(1,0,0,1,2,-223)" stroke-linecap="butt">
      <rect fill="none" x="102.0693" width="47.8613" height="30" y="473" clip-path="url(#clipPath2)"/>
      <text x="109.0693" xml:space="preserve" y="492.5352" clip-path="url(#clipPath2)" font-family="sans-serif" stroke="none">Client</text>
    </g>
    <g fill="rgb(255,204,0)" text-rendering="geometricPrecision" shape-rendering="geometricPrecision" transform="matrix(1,0,0,1,2,-223)" stroke="rgb(255,204,0)">
      <rect x="98.0693" width="47.8613" height="30" y="568" clip-path="url(#clipPath2)" stroke="none"/>
    </g>
    <g text-rendering="geometricPrecision" stroke-miterlimit="1.45" shape-rendering="geometricPrecision" transform="matrix(1,0,0,1,2,-223)" stroke-linecap="butt">
      <rect fill="none" x="98.0693" width="47.8613" height="30" y="568" clip-path="url(#clipPath2)"/>
      <text x="105.0693" xml:space="preserve" y="587.5352" clip-path="url(#clipPath2)" font-family="sans-serif" stroke="none">Client</text>
    </g>
    <g fill="rgb(255,204,0)" text-rendering="geometricPrecision" shape-rendering="geometricPrecision" transform="matrix(1,0,0,1,2,-223)" stroke="rgb(255,204,0)">
      <rect x="102.0693" width="47.8613" height="30" y="244" clip-path="url(#clipPath2)" stroke="none"/>
    </g>
    <g text-rendering="geometricPrecision" stroke-miterlimit="1.45" shape-rendering="geometricPrecision" transform="matrix(1,0,0,1,2,-223)" stroke-linecap="butt">
      <rect fill="none" x="102.0693" width="47.8613" height="30" y="244" clip-path="url(#clipPath2)"/>
      <text x="109.0693" xml:space="preserve" y="263.5352" clip-path="url(#clipPath2)" font-family="sans-serif" stroke="none">Client</text>
    </g>
    <g fill="rgb(255,204,0)" text-rendering="geometricPrecision" shape-rendering="geometricPrecision" transform="matrix(1,0,0,1,2,-223)" stroke="rgb(255,204,0)">
      <rect x="98.0693" width="47.8613" height="30" y="796" clip-path="url(#clipPath2)" stroke="none"/>
    </g>
    <g text-rendering="geometricPrecision" stroke-miterlimit="1.45" shape-rendering="geometricPrecision" transform="matrix(1,0,0,1,2,-223)" stroke-linecap="butt">
      <rect fill="none" x="98.0693" width="47.8613" height="30" y="796" clip-path="url(#clipPath2)"/>
      <text x="105.0693" xml:space="preserve" y="815.5352" clip-path="url(#clipPath2)" font-family="sans-serif" stroke="none">Client</text>
      <path fill="none" d="M390.2391 473 L487.2531 370.8021" clip-path="url(#clipPath2)"/>
      <path d="M492.7609 365 L480.8729 370.2608 L486.5646 371.5273 L488.1255 377.1455 Z" clip-path="url(#clipPath2)" stroke="none"/>
      <text x="463.5168" xml:space="preserve" y="434.8852" clip-path="url(#clipPath2)" font-family="sans-serif" stroke="none">If necessary, the recommended table can be modified</text>
      <path fill="none" d="M389.4366 598 L476.3658 690.1798" clip-path="url(#clipPath2)"/>
      <path d="M481.8544 696 L477.259 683.8393 L475.6797 689.4523 L469.9838 690.7001 Z" clip-path="url(#clipPath2)" stroke="none"/>
      <text x="456.4851" xml:space="preserve" y="634.7932" clip-path="url(#clipPath2)" font-family="sans-serif" stroke="none">If necessary, the secondary table can be modified</text>
      <path fill="none" d="M149.9307 488 L330.127 488" clip-path="url(#clipPath2)"/>
      <path d="M338.127 488 L326.127 483 L329.127 488 L326.127 493 Z" clip-path="url(#clipPath2)" stroke="none"/>
      <text x="134.019" xml:space="preserve" y="522.5352" clip-path="url(#clipPath2)" font-family="sans-serif" stroke="none">API requests modify the primary table</text>
      <path fill="none" d="M145.9307 583 L330.127 583" clip-path="url(#clipPath2)"/>
      <path d="M338.127 583 L326.127 578 L329.127 583 L326.127 588 Z" clip-path="url(#clipPath2)" stroke="none"/>
      <text x="132.019" xml:space="preserve" y="617.5352" clip-path="url(#clipPath2)" font-family="sans-serif" stroke="none">API requests modify the primary table</text>
      <path fill="none" d="M149.9307 264.7157 L436.4167 333.1415" clip-path="url(#clipPath2)"/>
      <path d="M444.1978 335 L433.6876 327.3491 L435.444 332.9092 L431.3645 337.0755 Z" clip-path="url(#clipPath2)" stroke="none"/>
      <text x="208.0477" xml:space="preserve" y="251.7287" clip-path="url(#clipPath2)" font-family="sans-serif" stroke="none">Clients performing routine operations can request data from a slimmed down table.</text>
      <text x="305.1024" xml:space="preserve" y="265.8615" clip-path="url(#clipPath2)" font-family="sans-serif" stroke="none">This reduces search space and is more performant</text>
      <path fill="none" d="M142.3755 274 L353.7253 467.5963" clip-path="url(#clipPath2)"/>
      <path d="M359.6245 473 L354.1529 461.2075 L352.9879 466.9209 L347.3984 468.5815 Z" clip-path="url(#clipPath2)" stroke="none"/>
      <text x="15.0892" xml:space="preserve" y="382.0629" clip-path="url(#clipPath2)" font-family="sans-serif" stroke="none">If more information is required, the primary table can be requested</text>
      <path fill="none" d="M145.9307 804.6014 L432.1715 728.0665" clip-path="url(#clipPath2)"/>
      <path d="M439.9 726 L427.0157 724.2694 L431.2054 728.3248 L429.5988 733.93 Z" clip-path="url(#clipPath2)" stroke="none"/>
      <text x="254.6176" xml:space="preserve" y="803.7147" clip-path="url(#clipPath2)" font-family="sans-serif" stroke="none">Analytical queries can also be improved by being performed on a reduced search space</text>
      <text x="244.9877" xml:space="preserve" y="817.8475" clip-path="url(#clipPath2)" font-family="sans-serif" stroke="none">For example creating a list of 10 users, you can conveniently see a timeline of their posts. </text>
    </g>
  </g>
</svg>
