<?xml version="1.0" encoding="UTF-8"?><svg xmlns="http://www.w3.org/2000/svg" xmlns:xlink="http://www.w3.org/1999/xlink" fill-opacity="1" color-rendering="auto" color-interpolation="auto" text-rendering="auto" stroke="black" stroke-linecap="square" width="907" stroke-miterlimit="10" shape-rendering="auto" stroke-opacity="1" fill="black" stroke-dasharray="none" font-weight="normal" stroke-width="1" height="404" font-family="'Dialog'" font-style="normal" stroke-linejoin="miter" font-size="12px" stroke-dashoffset="0" image-rendering="auto">
  <!--Generated by ySVG 2.5-->
  <defs id="genericDefs"/>
  <g>
    <defs id="defs1">
      <clipPath clipPathUnits="userSpaceOnUse" id="clipPath1">
        <path d="M0 0 L907 0 L907 404 L0 404 L0 0 Z"/>
      </clipPath>
      <clipPath clipPathUnits="userSpaceOnUse" id="clipPath2">
        <path d="M315 -59 L1222 -59 L1222 345 L315 345 L315 -59 Z"/>
      </clipPath>
    </defs>
    <g fill="white" text-rendering="geometricPrecision" shape-rendering="geometricPrecision" transform="translate(-315,59)" stroke="white">
      <rect x="315" width="907" height="404" y="-59" clip-path="url(#clipPath2)" stroke="none"/>
    </g>
    <g fill="rgb(245,245,245)" text-rendering="geometricPrecision" shape-rendering="geometricPrecision" transform="matrix(1,0,0,1,-315,59)" stroke="rgb(245,245,245)">
      <rect x="389.5714" y="-43.332" clip-path="url(#clipPath2)" width="344.7333" rx="4" ry="4" height="81.666" stroke="none"/>
      <rect x="389.5714" y="-43.332" clip-path="url(#clipPath2)" fill="rgb(235,235,235)" width="344.7333" height="21.666" stroke="none"/>
    </g>
    <g font-size="15px" stroke-linecap="butt" transform="matrix(1,0,0,1,-315,59)" text-rendering="geometricPrecision" font-family="sans-serif" shape-rendering="geometricPrecision" stroke-miterlimit="1.45">
      <text x="620.7496" xml:space="preserve" y="-26.8301" clip-path="url(#clipPath2)" stroke="none">Storage Cluster</text>
      <rect x="389.5714" y="-43.332" clip-path="url(#clipPath2)" fill="none" width="344.7333" stroke-dasharray="6,2" rx="4" ry="4" height="81.666"/>
    </g>
    <g fill="rgb(255,51,51)" text-rendering="geometricPrecision" shape-rendering="geometricPrecision" transform="matrix(1,0,0,1,-315,59)" stroke="rgb(255,51,51)">
      <rect x="664.1778" width="55.127" height="30" y="-6.666" clip-path="url(#clipPath2)" stroke="none"/>
    </g>
    <g text-rendering="geometricPrecision" stroke-miterlimit="1.45" shape-rendering="geometricPrecision" transform="matrix(1,0,0,1,-315,59)" stroke-linecap="butt">
      <rect fill="none" x="664.1778" width="55.127" height="30" y="-6.666" clip-path="url(#clipPath2)"/>
      <text x="671.1778" xml:space="preserve" y="12.8691" clip-path="url(#clipPath2)" font-family="sans-serif" stroke="none">TiKV-n</text>
    </g>
    <g fill="rgb(255,51,51)" text-rendering="geometricPrecision" shape-rendering="geometricPrecision" transform="matrix(1,0,0,1,-315,59)" stroke="rgb(255,51,51)">
      <rect x="575.1073" width="59.0703" height="30" y="-6.666" clip-path="url(#clipPath2)" stroke="none"/>
    </g>
    <g text-rendering="geometricPrecision" stroke-miterlimit="1.45" shape-rendering="geometricPrecision" transform="matrix(1,0,0,1,-315,59)" stroke-linecap="butt">
      <rect fill="none" x="575.1073" width="59.0703" height="30" y="-6.666" clip-path="url(#clipPath2)"/>
      <text x="582.1073" xml:space="preserve" y="12.8691" clip-path="url(#clipPath2)" font-family="sans-serif" stroke="none">TiKV-...</text>
    </g>
    <g fill="rgb(255,51,51)" text-rendering="geometricPrecision" shape-rendering="geometricPrecision" transform="matrix(1,0,0,1,-315,59)" stroke="rgb(255,51,51)">
      <rect x="489.8396" width="55.2676" height="30" y="-6.666" clip-path="url(#clipPath2)" stroke="none"/>
    </g>
    <g text-rendering="geometricPrecision" stroke-miterlimit="1.45" shape-rendering="geometricPrecision" transform="matrix(1,0,0,1,-315,59)" stroke-linecap="butt">
      <rect fill="none" x="489.8396" width="55.2676" height="30" y="-6.666" clip-path="url(#clipPath2)"/>
      <text x="496.8396" xml:space="preserve" y="12.8691" clip-path="url(#clipPath2)" font-family="sans-serif" stroke="none">TiKV-2</text>
    </g>
    <g fill="rgb(255,51,51)" text-rendering="geometricPrecision" shape-rendering="geometricPrecision" transform="matrix(1,0,0,1,-315,59)" stroke="rgb(255,51,51)">
      <rect x="404.5718" width="55.2676" height="30" y="-6.666" clip-path="url(#clipPath2)" stroke="none"/>
    </g>
    <g text-rendering="geometricPrecision" stroke-miterlimit="1.45" shape-rendering="geometricPrecision" transform="matrix(1,0,0,1,-315,59)" stroke-linecap="butt">
      <rect fill="none" x="404.5718" width="55.2676" height="30" y="-6.666" clip-path="url(#clipPath2)"/>
      <text x="411.5718" xml:space="preserve" y="12.8691" clip-path="url(#clipPath2)" font-family="sans-serif" stroke="none">TiKV-1</text>
    </g>
    <g fill="rgb(245,245,245)" text-rendering="geometricPrecision" shape-rendering="geometricPrecision" transform="matrix(1,0,0,1,-315,59)" stroke="rgb(245,245,245)">
      <rect x="330.2393" y="94.834" clip-path="url(#clipPath2)" width="463.3976" rx="4" ry="4" height="81.666" stroke="none"/>
      <rect x="330.2393" y="94.834" clip-path="url(#clipPath2)" fill="rgb(235,235,235)" width="463.3976" height="21.666" stroke="none"/>
    </g>
    <g font-size="15px" stroke-linecap="butt" transform="matrix(1,0,0,1,-315,59)" text-rendering="geometricPrecision" font-family="sans-serif" shape-rendering="geometricPrecision" stroke-miterlimit="1.45">
      <text x="664.613" xml:space="preserve" y="111.3359" clip-path="url(#clipPath2)" stroke="none">SurrealDB Cluster</text>
      <rect x="330.2393" y="94.834" clip-path="url(#clipPath2)" fill="none" width="463.3976" stroke-dasharray="6,2" rx="4" ry="4" height="81.666"/>
    </g>
    <g fill="rgb(150,0,255)" text-rendering="geometricPrecision" shape-rendering="geometricPrecision" transform="matrix(1,0,0,1,-315,59)" stroke="rgb(150,0,255)">
      <rect x="693.8436" width="84.793" height="30" y="131.5" clip-path="url(#clipPath2)" stroke="none"/>
    </g>
    <g text-rendering="geometricPrecision" stroke-miterlimit="1.45" shape-rendering="geometricPrecision" transform="matrix(1,0,0,1,-315,59)" stroke-linecap="butt">
      <rect fill="none" x="693.8436" width="84.793" height="30" y="131.5" clip-path="url(#clipPath2)"/>
      <text x="700.8436" y="151.0352" clip-path="url(#clipPath2)" fill="white" font-family="sans-serif" stroke="none" xml:space="preserve">SurrealDB-n</text>
    </g>
    <g fill="rgb(150,0,255)" text-rendering="geometricPrecision" shape-rendering="geometricPrecision" transform="matrix(1,0,0,1,-315,59)" stroke="rgb(150,0,255)">
      <rect x="575.1072" width="88.7363" height="30" y="131.5" clip-path="url(#clipPath2)" stroke="none"/>
    </g>
    <g text-rendering="geometricPrecision" stroke-miterlimit="1.45" shape-rendering="geometricPrecision" transform="matrix(1,0,0,1,-315,59)" stroke-linecap="butt">
      <rect fill="none" x="575.1072" width="88.7363" height="30" y="131.5" clip-path="url(#clipPath2)"/>
      <text x="582.1072" y="151.0352" clip-path="url(#clipPath2)" fill="white" font-family="sans-serif" stroke="none" xml:space="preserve">SurrealDB-...</text>
    </g>
    <g fill="rgb(150,0,255)" text-rendering="geometricPrecision" shape-rendering="geometricPrecision" transform="matrix(1,0,0,1,-315,59)" stroke="rgb(150,0,255)">
      <rect x="460.1733" width="84.9336" height="30" y="131.5" clip-path="url(#clipPath2)" stroke="none"/>
    </g>
    <g text-rendering="geometricPrecision" stroke-miterlimit="1.45" shape-rendering="geometricPrecision" transform="matrix(1,0,0,1,-315,59)" stroke-linecap="butt">
      <rect fill="none" x="460.1733" width="84.9336" height="30" y="131.5" clip-path="url(#clipPath2)"/>
      <text x="467.1733" y="151.0352" clip-path="url(#clipPath2)" fill="white" font-family="sans-serif" stroke="none" xml:space="preserve">SurrealDB-2</text>
    </g>
    <g fill="rgb(150,0,255)" text-rendering="geometricPrecision" shape-rendering="geometricPrecision" transform="matrix(1,0,0,1,-315,59)" stroke="rgb(150,0,255)">
      <rect x="345.2396" width="84.9336" height="30" y="131.5" clip-path="url(#clipPath2)" stroke="none"/>
    </g>
    <g text-rendering="geometricPrecision" stroke-miterlimit="1.45" shape-rendering="geometricPrecision" transform="matrix(1,0,0,1,-315,59)" stroke-linecap="butt">
      <rect fill="none" x="345.2396" width="84.9336" height="30" y="131.5" clip-path="url(#clipPath2)"/>
      <text x="352.2396" y="151.0352" clip-path="url(#clipPath2)" fill="white" font-family="sans-serif" stroke="none" xml:space="preserve">SurrealDB-1</text>
      <path fill="none" d="M718.6928 131.5 L615.7994 43.5434" clip-path="url(#clipPath2)"/>
      <path d="M609.7184 38.3452 L615.5911 49.9431 L616.5596 44.1932 L622.0888 42.3419 Z" clip-path="url(#clipPath2)" stroke="none"/>
      <path fill="none" d="M613.683 131.5 L580.5986 45.8244" clip-path="url(#clipPath2)"/>
      <path d="M577.7167 38.3615 L577.3752 51.357 L580.9589 46.7573 L586.7039 47.7547 Z" clip-path="url(#clipPath2)" stroke="none"/>
      <path fill="none" d="M508.6097 131.5 L542.7184 45.7945" clip-path="url(#clipPath2)"/>
      <path d="M545.6766 38.3615 L536.5938 47.6622 L542.3487 46.7236 L545.885 51.3598 Z" clip-path="url(#clipPath2)" stroke="none"/>
      <path fill="none" d="M405.2466 131.5 L508.0971 43.5446" clip-path="url(#clipPath2)"/>
      <path d="M514.177 38.3451 L501.8074 42.3444 L507.3371 44.1945 L508.3068 49.9443 Z" clip-path="url(#clipPath2)" stroke="none"/>
    </g>
    <g fill="rgb(245,245,245)" text-rendering="geometricPrecision" shape-rendering="geometricPrecision" transform="matrix(1,0,0,1,-315,59)" stroke="rgb(245,245,245)">
      <rect x="377.1525" y="248" clip-path="url(#clipPath2)" width="369.5711" rx="4" ry="4" height="81.666" stroke="none"/>
      <rect x="377.1525" y="248" clip-path="url(#clipPath2)" fill="rgb(235,235,235)" width="369.5711" height="21.666" stroke="none"/>
    </g>
    <g font-size="15px" stroke-linecap="butt" transform="matrix(1,0,0,1,-315,59)" text-rendering="geometricPrecision" font-family="sans-serif" shape-rendering="geometricPrecision" stroke-miterlimit="1.45">
      <text x="694.7505" xml:space="preserve" y="264.502" clip-path="url(#clipPath2)" stroke="none">Clients</text>
      <rect x="377.1525" y="248" clip-path="url(#clipPath2)" fill="none" width="369.5711" stroke-dasharray="6,2" rx="4" ry="4" height="81.666"/>
    </g>
    <g fill="rgb(255,204,0)" text-rendering="geometricPrecision" shape-rendering="geometricPrecision" transform="matrix(1,0,0,1,-315,59)" stroke="rgb(255,204,0)">
      <rect x="669.4014" width="62.252" height="30" y="284.666" clip-path="url(#clipPath2)" stroke="none"/>
    </g>
    <g text-rendering="geometricPrecision" stroke-miterlimit="1.45" shape-rendering="geometricPrecision" transform="matrix(1,0,0,1,-315,59)" stroke-linecap="butt">
      <rect fill="none" x="669.4014" width="62.252" height="30" y="284.666" clip-path="url(#clipPath2)"/>
      <text x="676.4014" xml:space="preserve" y="304.2012" clip-path="url(#clipPath2)" font-family="sans-serif" stroke="none">Client-n</text>
    </g>
    <g fill="rgb(255,204,0)" text-rendering="geometricPrecision" shape-rendering="geometricPrecision" transform="matrix(1,0,0,1,-315,59)" stroke="rgb(255,204,0)">
      <rect x="575.0369" width="66.1953" height="30" y="284.666" clip-path="url(#clipPath2)" stroke="none"/>
    </g>
    <g text-rendering="geometricPrecision" stroke-miterlimit="1.45" shape-rendering="geometricPrecision" transform="matrix(1,0,0,1,-315,59)" stroke-linecap="butt">
      <rect fill="none" x="575.0369" width="66.1953" height="30" y="284.666" clip-path="url(#clipPath2)"/>
      <text x="582.0369" xml:space="preserve" y="304.2012" clip-path="url(#clipPath2)" font-family="sans-serif" stroke="none">Client-...</text>
    </g>
    <g fill="rgb(255,204,0)" text-rendering="geometricPrecision" shape-rendering="geometricPrecision" transform="matrix(1,0,0,1,-315,59)" stroke="rgb(255,204,0)">
      <rect x="484.5454" width="62.3926" height="30" y="284.666" clip-path="url(#clipPath2)" stroke="none"/>
    </g>
    <g text-rendering="geometricPrecision" stroke-miterlimit="1.45" shape-rendering="geometricPrecision" transform="matrix(1,0,0,1,-315,59)" stroke-linecap="butt">
      <rect fill="none" x="484.5454" width="62.3926" height="30" y="284.666" clip-path="url(#clipPath2)"/>
      <text x="491.5454" xml:space="preserve" y="304.2012" clip-path="url(#clipPath2)" font-family="sans-serif" stroke="none">Client-2</text>
    </g>
    <g fill="rgb(255,204,0)" text-rendering="geometricPrecision" shape-rendering="geometricPrecision" transform="matrix(1,0,0,1,-315,59)" stroke="rgb(255,204,0)">
      <rect x="392.1525" width="62.3926" height="30" y="284.666" clip-path="url(#clipPath2)" stroke="none"/>
    </g>
    <g text-rendering="geometricPrecision" stroke-miterlimit="1.45" shape-rendering="geometricPrecision" transform="matrix(1,0,0,1,-315,59)" stroke-linecap="butt">
      <rect fill="none" x="392.1525" width="62.3926" height="30" y="284.666" clip-path="url(#clipPath2)"/>
      <text x="399.1525" xml:space="preserve" y="304.2012" clip-path="url(#clipPath2)" font-family="sans-serif" stroke="none">Client-1</text>
      <rect fill="none" x="860.7451" width="258.084" height="30" y="-17.499" clip-path="url(#clipPath2)"/>
      <text x="867.7451" xml:space="preserve" y="2.0361" clip-path="url(#clipPath2)" font-family="sans-serif" stroke="none">Storage Scales based on read write access</text>
      <rect fill="none" x="860.7451" width="345.9395" height="30" y="120.667" clip-path="url(#clipPath2)"/>
      <text x="867.7451" xml:space="preserve" y="140.2021" clip-path="url(#clipPath2)" font-family="sans-serif" stroke="none">Compute scales based on query processing and requests</text>
      <rect fill="none" x="860.7451" width="194.6328" height="30" y="273.833" clip-path="url(#clipPath2)"/>
      <text x="867.7451" xml:space="preserve" y="293.3682" clip-path="url(#clipPath2)" font-family="sans-serif" stroke="none">Clients scale based on demand</text>
      <path fill="none" d="M687.8514 284.666 L601.6234 182.6284" clip-path="url(#clipPath2)"/>
      <path d="M596.4598 176.518 L600.3862 188.9109 L602.2689 183.3922 L608.0242 182.4563 Z" clip-path="url(#clipPath2)" stroke="none"/>
      <path fill="none" d="M603.9092 284.666 L575.6144 184.2184" clip-path="url(#clipPath2)"/>
      <path d="M573.4453 176.518 L571.8862 189.4242 L575.8855 185.1809 L581.5116 186.7129 Z" clip-path="url(#clipPath2)" stroke="none"/>
      <path fill="none" d="M519.967 284.666 L548.2618 184.2184" clip-path="url(#clipPath2)"/>
      <path d="M550.4308 176.518 L542.3646 186.7129 L547.9907 185.1809 L551.9899 189.4242 Z" clip-path="url(#clipPath2)" stroke="none"/>
      <path fill="none" d="M436.0247 284.666 L522.2528 182.6284" clip-path="url(#clipPath2)"/>
      <path d="M527.4164 176.518 L515.852 182.4563 L521.6074 183.3922 L523.49 188.9109 Z" clip-path="url(#clipPath2)" stroke="none"/>
      <path fill="none" d="M860.7451 -2.499 L742.2847 -2.499" clip-path="url(#clipPath2)"/>
      <path d="M734.2847 -2.499 L746.2847 2.501 L743.2847 -2.499 L746.2847 -7.499 Z" clip-path="url(#clipPath2)" stroke="none"/>
      <path fill="none" d="M860.7451 135.667 L801.6667 135.667" clip-path="url(#clipPath2)"/>
      <path d="M793.6667 135.667 L805.6667 140.667 L802.6667 135.667 L805.6667 130.667 Z" clip-path="url(#clipPath2)" stroke="none"/>
      <path fill="none" d="M860.7451 288.833 L754.7593 288.833" clip-path="url(#clipPath2)"/>
      <path d="M746.7593 288.833 L758.7593 293.833 L755.7593 288.833 L758.7593 283.833 Z" clip-path="url(#clipPath2)" stroke="none"/>
    </g>
  </g>
</svg>
